/* XPM */
static char *face_cool_xpm[] = {
/* columns rows colors chars-per-pixel */
"32 32 234 2",
"   c None",
".  c #d8d7cc",
"X  c #e2da9c",
"o  c #e9da6f",
"O  c #edd652",
"+  c #ebd63c",
"@  c #ead22c",
"#  c #e9cf36",
"$  c #e1ca3c",
"%  c #deca50",
"&  c #d6c86c",
"*  c #d8ce94",
"=  c #dedab2",
"-  c #eadc7c",
";  c #f8da39",
":  c #f2d63c",
">  c #f2da3a",
",  c #f2d237",
"<  c #e7ca34",
"1  c #e2c634",
"2  c #dec234",
"3  c #d2d2cc",
"4  c #eade9c",
"5  c #fade37",
"6  c #f5de51",
"7  c #f0d22c",
"8  c #dcbe32",
"9  c #d0c684",
"0  c #eede74",
"q  c #fae229",
"w  c #f6da26",
"e  c #eace28",
"r  c #e9c639",
"t  c #d2ba54",
"y  c #d0bc70",
"u  c #f8e246",
"i  c #f9de29",
"p  c #f2da29",
"a  c #f1d628",
"s  c #e5c22f",
"d  c #d6b634",
"f  c #d0b644",
"g  c #d2ceb2",
"h  c #f6d621",
"j  c #e6ca2c",
"k  c #dbba2f",
"l  c #cfae2f",
"z  c #c6ae54",
"x  c #f3da56",
"c  c #f1d222",
"v  c #caaa2c",
"b  c #e5c626",
"n  c #d1b237",
"m  c #c2a244",
"M  c #bab294",
"N  c #f2d650",
"B  c #fae642",
"V  c #dcba22",
"C  c #cba62f",
"Z  c #c39e32",
"A  c #cecab1",
"S  c #f6d63a",
"D  c #faea84",
"F  c #fef4a8",
"G  c #fef294",
"H  c #faea6c",
"J  c #faee84",
"K  c #f9ed97",
"L  c #f6e464",
"P  c #eece26",
"I  c #baaa6c",
"U  c #eaca26",
"Y  c #e2c654",
"T  c #beae3c",
"R  c #867a34",
"E  c #5e5a34",
"W  c #4e4a39",
"Q  c #423e2c",
"!  c #42422c",
"~  c #726e4c",
"^  c #b6ae6c",
"/  c #c6ba7c",
"(  c #8e8654",
")  c #666254",
"_  c #5e5214",
"`  c #726614",
"'  c #a28e14",
"]  c #b4961f",
"[  c #be9e24",
"{  c #c5a224",
"}  c #bc9a22",
"|  c #ae922c",
" . c #f0ce37",
".. c #bea620",
"X. c #7e7224",
"o. c #564e24",
"O. c #76725c",
"+. c #acaaa8",
"@. c #787874",
"#. c #323231",
"$. c #1e1e1c",
"%. c #1b1a14",
"&. c #262624",
"*. c #3e3e3c",
"=. c #9a924c",
"-. c #8e8a64",
";. c #827e5c",
":. c #6a6a60",
">. c #52524c",
",. c #16140c",
"<. c #373212",
"1. c #4a3e14",
"2. c #7c661c",
"3. c #9c8240",
"4. c #ae8e2c",
"5. c #ead674",
"6. c #524610",
"7. c #232223",
"8. c #2a2a2b",
"9. c #2e2e2c",
"0. c #727274",
"q. c #5e5e5c",
"w. c #221e14",
"e. c #b48e24",
"r. c #ae9e6c",
"t. c #eed258",
"y. c #6a5a14",
"u. c #625614",
"i. c #4a4a4c",
"p. c #3c3a34",
"a. c #867624",
"s. c #ba9420",
"d. c #ae8a1c",
"f. c #aa924c",
"g. c #6c5e18",
"h. c #b29a1c",
"j. c #585648",
"k. c #f2edb7",
"l. c #5e5a44",
"z. c #6a5e2c",
"x. c #9e8a1c",
"c. c #c29624",
"v. c #a68634",
"b. c #eeca38",
"n. c #8e7a1c",
"m. c #96861c",
"M. c #d6d2b2",
"N. c #fcf6cc",
"B. c #faf2bc",
"V. c #363631",
"C. c #a68c38",
"Z. c #b49224",
"A. c #ac8620",
"S. c #a47e21",
"D. c #eeca2c",
"F. c #665a17",
"G. c #a6a284",
"H. c #eee27c",
"J. c #a69a54",
"K. c #cfaa23",
"L. c #a5821e",
"P. c #9a7a34",
"I. c #dace6c",
"U. c #eee6b4",
"Y. c #a69638",
"T. c #c6b654",
"R. c #dab623",
"E. c #d2ae22",
"W. c #cba621",
"Q. c #9a761f",
"!. c #e4be30",
"~. c #dece44",
"^. c #cec264",
"/. c #c2b654",
"(. c #9a8a24",
"). c #5a4e0c",
"_. c #a4921c",
"`. c #caab1f",
"'. c #debe1e",
"]. c #d6b624",
"[. c #c49e22",
"{. c #deca74",
"}. c #eac624",
"|. c #beb244",
" X c #957f14",
".X c #86760c",
"XX c #d4ba1c",
"oX c #e4c220",
"OX c #d5b223",
"+X c #9e761c",
"@X c #9e8e60",
"#X c #deb630",
"$X c #e2ba2c",
"%X c #d6be24",
"&X c #e2be21",
"*X c #a07a1f",
"=X c #946e1a",
"-X c #aea68c",
";X c #dab230",
":X c #8e6a19",
">X c #d6ae2c",
",X c #9a8a64",
"<X c #d2aa2c",
"1X c #d6ae24",
"2X c #ae9214",
"3X c #94721c",
"4X c #c2beb4",
"5X c #eace54",
"6X c #423a14",
"7X c #3e360c",
"8X c #866a14",
"9X c #a88e18",
"0X c #9c7f16",
"qX c #aa7e1c",
"wX c #9a721c",
"eX c #8b6619",
"rX c #caaa4c",
"tX c #caa224",
"yX c #957a14",
"uX c #926a18",
"iX c #92763c",
"pX c #c49a24",
"aX c #8c6f14",
"sX c #957618",
"dX c #c4c2b4",
"fX c #9a7a1a",
"gX c #826514",
"hX c #babaa4",
"jX c #b28a1c",
"kX c #baa664",
"lX c #c6c6b4",
"zX c #beb68c",
"xX c #b29e64",
"cX c #b2ae8c",
/* pixels */
"                    . X o O + @ # $ % & * .                     ",
"                = - ; ; : > + , # # < $ 1 2 & 3                 ",
"              4 5 5 6 5 ; ; > : 7 @ # < $ 1 2 8 9               ",
"          = 0 5 5 q 5 5 5 ; ; w > , 7 e < r 1 8 t y 3           ",
"        . ; 5 5 5 u i i i i i p p a + a @ < 1 s 8 d f g         ",
"      = 6 5 ; 5 5 i 5 i i i i i i w h 7 7 @ j 1 8 k l z 3       ",
"      x ; 5 5 5 i i q q i i i i i i p a c 7 e j 2 8 d v z       ",
"    - ; ; 5 ; i i q i i q q i i i w i w p c e j b 8 d n m M     ",
"  . N ; ; 5 w 5 i u B B q q q q q i u u 6 > 7 j b 8 V n C Z A   ",
"  o S ; ; w i i u D F F G B q q u H J K D L > P j s V n v Z I   ",
". S , , U Y T R E W Q ! ~ ^ L u H K / ( ) E E _ ` ' ] [ { } | . ",
"X ,  ...X.o.O.+.@.#.$.%.&.*.E =.-.;.W :.>.&.,.,.,.<.1.E 2.3.4.M ",
"5.,  .6.<.&.:.+.@.#.$.%.$.$.7.8.8.9.*.0.q.9.$.7.$.7.&.8.w.| e.r.",
"t. .S y.u.7.#.i.p.&.$.7.7.&.8.-.-.8.7.#.8.7.7.7.&.&.9.a.1.s.d.f.",
" . ., g.h.6.7.$.7.$.$.7.&.8.j.k.k.l.7.$.$.7.7.7.&.&.z.x.o.c.4.v.",
"b.b.7 n.7 m.6.,.%.$.7.&.&.#.M.N.B.9 V.&.$.7.&.&.8.9.C.C y.Z.A.S.",
"b.b.D.7 7 7 T F.V.7.#.i.) G.N.N.B.H.J.*.8.&.8.#.W R K.K.Z e.L.P.",
"r r D. .P c c c @ a p @ I.4 U.U.K O m.g.` g.Y.T.f R.E.W.} 4.L.Q.",
"Y !.s D.D.c c a h p p a ~.^.^ ^ /.(.).g._.' `.'.V ].K.[.s.A.P.3.",
"{.!.s }.D.U P P a h h p + ~.|.Y._. X.X..'.XXoXoXV OXW.} e.S.+X@X",
"* #X$X!.oX}.U P P a c h h a @ %X%XXXb e U b &XV OXK.{ s.A.*X=X-X",
". ;X#XV !.oX}.}.P e c c c a a @ e U P U }.&XV OXE.{ c.e.L.Q.:X3 ",
"  y >X;XV &XoXoX}.U e 7 > x x x > e b oX'.E.`.W.{ } Z.A.*X=X,X  ",
"  g <X>X1X;XV &XoXoX< O t.O O O # b oX'.`.] 2X2X2XZ.A.S.3X:X4X  ",
"    y C <XE.OXR.V $Xb 5Xn u.6X7X7X<.8XOX9X0XL.A.A.A.qXwXeX@X    ",
"      rXtXtX<X1XOXR.R.8 OX9XyXyX0XyXh.} 0X3XyXyXS.*XQ.uXiX      ",
"      g Z pXtXW.<X1X1X1X1XOXOXE.W.W.s.yX8XaXsXsX*XsX=X:XdX      ",
"        A [.pX[.[.tXtX{ 2XL.fXyXyXyXaXgXgXaX=X3X=XuXeXhX        ",
"          g m c.c.c.c.c.d.0X3XaX8XaX8XgX8X=X:X=XuXiXdX          ",
"              z jXe.e.jXd.A.0XfXsX3X=X8X:X:X:XeX@X              ",
"                A kXA.A.A.qX*X*X+XsXwX=X:XeX,XlX                ",
"                    . zXxXC.qXwX3XQ.3.@XcX3                     "
};
