/* XPM */
static char *face_win_xpm[] = {
/* columns rows colors chars-per-pixel */
"32 32 234 2",
"   c None",
".  c #d8d7cf",
"X  c #e1daa1",
"o  c #ead977",
"O  c #ead858",
"+  c #ead644",
"@  c #eed137",
"#  c #e9cf36",
"$  c #e2ca3c",
"%  c #e0c854",
"&  c #d8ca64",
"*  c #d8ce94",
"=  c #dedab4",
"-  c #eade7c",
";  c #f7da40",
":  c #f6da2c",
">  c #f2d83c",
",  c #f2d62d",
"<  c #e2c634",
"1  c #ddc237",
"2  c #d0d0c8",
"3  c #eade8c",
"4  c #f9de3d",
"5  c #f6d630",
"6  c #e7ca30",
"7  c #dcbc32",
"8  c #d2c67c",
"9  c #f2dc5c",
"0  c #fae229",
"q  c #fade31",
"w  c #f2da2c",
"e  c #ebd62f",
"r  c #eed22a",
"t  c #edc93f",
"y  c #d2ba54",
"u  c #d0bc70",
"i  c #eace2c",
"p  c #e4c22c",
"a  c #d6bd21",
"s  c #d0b238",
"d  c #f8de22",
"f  c #c8ac50",
"g  c #d6b634",
"h  c #caaa2c",
"j  c #e4d878",
"k  c #807638",
"l  c #645614",
"z  c #534a14",
"x  c #4e4610",
"c  c #4c4216",
"v  c #84761c",
"b  c #e2ca24",
"n  c #9e8e1c",
"m  c #7a6a14",
"M  c #746414",
"N  c #6c6214",
"B  c #8b7917",
"V  c #b8a21c",
"C  c #c4a62c",
"Z  c #c4aa2c",
"A  c #c6a634",
"S  c #bab294",
"D  c #f2ce34",
"F  c #756a37",
"G  c #6e6a4c",
"H  c #94928c",
"J  c #6c6858",
"K  c #363418",
"L  c #2a2204",
"P  c #221e08",
"I  c #322e0c",
"U  c #544e10",
"Y  c #8c7e14",
"T  c #e2ce24",
"R  c #dac61c",
"E  c #d0b61c",
"W  c #56522c",
"Q  c #3e3a24",
"!  c #1a1604",
"~  c #524611",
"^  c #9b821f",
"/  c #a68a24",
"(  c #a38d37",
")  c #c8c6b4",
"_  c #252212",
"`  c Gray14",
"'  c #868284",
"]  c #343433",
"[  c #151514",
"{  c #1d1d1c",
"}  c #2b2b2c",
"|  c #3e3e3c",
" . c #7e7a74",
".. c #44423c",
"X. c #967e34",
"o. c #baaa6c",
"O. c #f6d23a",
"+. c #525250",
"@. c #8a8a87",
"#. c #5a5a5c",
"$. c #4b4a46",
"%. c #c49e34",
"&. c #af9221",
"*. c #6e5e14",
"=. c #b2a63c",
"-. c #b99a24",
";. c #be9a22",
":. c #b69222",
">. c #5c562e",
",. c #fae65c",
"<. c #eade5c",
"1. c #56523c",
"2. c #72622c",
"3. c #b18e25",
"4. c #b09e68",
"5. c #eed25c",
"6. c #453c0c",
"7. c #cec264",
"8. c #faee94",
"9. c #b2a654",
"0. c #d1ae28",
"q. c #af8a1c",
"w. c #aa924c",
"e. c #eece44",
"r. c #e9c62e",
"t. c #746e48",
"y. c #fef6b4",
"u. c #f4eaa0",
"i. c #dace74",
"p. c #665e3c",
"a. c #5c5840",
"s. c #322a0c",
"d. c #a68634",
"f. c #3c3608",
"g. c #3a3624",
"h. c #928a44",
"j. c #fdf6c9",
"k. c #fcf2b0",
"l. c #c4b438",
"z. c #4e4a39",
"x. c #dbb628",
"c. c #a47e20",
"v. c #bea224",
"b. c #6e663c",
"n. c #c6ae20",
"m. c #f1e9b1",
"M. c #7e720c",
"N. c #e3be29",
"B. c #5a4e24",
"V. c #7a6214",
"C. c #92763c",
"Z. c #9a7a34",
"A. c #9e9a84",
"S. c #76724c",
"D. c #5a4a0c",
"F. c #928016",
"G. c #93761a",
"H. c #5e4e0c",
"J. c #6e5a14",
"K. c #c39a1e",
"L. c #9a7722",
"P. c #eac234",
"I. c #eeca30",
"U. c #b2aea0",
"Y. c #b6ae8c",
"T. c #7e7a5c",
"R. c #968e64",
"E. c #9d936c",
"W. c #a69e6c",
"Q. c #a69a54",
"!. c #7a6e14",
"~. c #4a463c",
"^. c #bb961f",
"/. c #ac8620",
"(. c #9e823c",
"). c #deca74",
"_. c #e6e6e4",
"`. c #c3c2bb",
"'. c #babaa4",
"]. c #605e56",
"[. c #4e4e44",
"{. c #7f7f7d",
"}. c #787874",
"|. c #a6821f",
" X c #9e761c",
".X c #9e8e60",
"XX c #e1dedc",
"oX c #ebebe6",
"OX c #e3e2e1",
"+X c #adadac",
"@X c #a3a3a1",
"#X c #807e6c",
"$X c #898682",
"%X c #c5a221",
"&X c #a17a1f",
"*X c #936e1a",
"=X c #aea68c",
"-X c #dab230",
";X c #deba24",
":X c #b1961c",
">X c #bbbbb9",
",X c #906a1f",
"<X c #d6ae27",
"1X c #d6c21c",
"2X c #867e64",
"3X c #c9c7c4",
"4X c #b6961c",
"5X c #c59e24",
"6X c #ba921c",
"7X c #9a8a64",
"8X c #d4d0b4",
"9X c #d2aa28",
"0X c #d6b326",
"qX c #747058",
"wX c #9a721c",
"eX c #c2beb4",
"rX c #cca624",
"tX c #be9e2c",
"yX c #8e661c",
"uX c #a29e94",
"iX c #b78e1f",
"pX c #caa226",
"aX c #866e14",
"sX c #7a725c",
"dX c #a48614",
"fX c #ac811e",
"gX c #cecab0",
"hX c #967220",
"jX c #b4b4b0",
"kX c #c29624",
"lX c #c2b074",
"zX c #baa664",
"xX c #beb68c",
"cX c #a2925c",
/* pixels */
"                    . X o O + @ # $ % & * .                     ",
"                = - ; : > > , + # # $ < < 1 & 2                 ",
"              3 4 4 4 4 : ; 5 , @ @ # 6 $ 1 < 7 8               ",
"          = 9 4 4 0 4 : q : : w w e r # 6 t 1 1 y u 2           ",
"        = 9 4 ; 4 0 4 q q q q : : , r e r i < p 7 a s 2         ",
"      = ; q ; q q q 0 q d d d d d w : r r i 6 < 7 7 s f 2       ",
"      o ; 4 q 4 q q 0 0 0 d q d d : : , , i i 6 1 7 g h f       ",
"    j ; : ; 1 k l z x c v a 0 d d d b n m M M N B V C Z A S     ",
"  . D t C F G H J K L P I U Y T R E l W Q ! ! ! ! ~ l ^ / ( )   ",
"  o @ v _ ` ' 2 H ] [ [ [ { _ } } } | H  .] { [ { [ ` } ..X.o.  ",
". O.O.7 x ` +.@.#.] ` ` ` ` } } } ] | +.$.` ` ` ` } } } F %.&.. ",
"X > > , *.` } ] } ` { ` ` ` } =.=.} { ` { ` ` ` ` ` } &.-.;.:.S ",
"o D O., V z _ { { { { ` ` ` >.,.<.1.` ` { ` ` ` ` } 2.( A ;.3.4.",
"5.D , O.w v 6.[ { { ` ` } } 7.8.- 9.] { { { ` ` } ` ( 0.A ;.q.w.",
"e.D r.Z 5 e m _ { { ` ` } t.y.y.u.i.p.] ` ` ` } ] a.Z ^ s.q.d.d.",
"t p l f., 5 w a N ` ` g.h.8.j.j.k.j l.>.| ] | z.k x.x.c.I c q.c.",
"t v.c b.~ B n.w : w d r i.m.j.j.k.3 l.M.z c Y E N.v.M B.V.C.d.Z.",
"t r.r.-.b.A.S.D.F.V a e & X m.m.u.O F.l *.l G.B H.c 1.J.K.q.c.L.",
"% P.r.I.M U.. . Y.T.b.x k R.E.W.Q.!.6.f.6.L I z.~.#.c &.^./.Z.(.",
").N.P.p r.6.. _._. .`._.2 '.@.].].[...].[.{.}.$...z.G.K.q.|. X.X",
"* x.N.N.p a >.XXoX}.`._.OXXX+X+.+X@X@X#X] $X}.$.$.H.%X^./.&X*X=X",
". -X-X;XN.N.:X#XoX}.`._._.XX{.}.`.>X+X{.} $X{.+.c %X^.3.c.L.,X2 ",
"  u <X-X;XN.1X:X2X{.`.oX_.XX{.}.3X>X+X{.Q @.{.c 4X5X6X/. X*X7X  ",
"  8X9X9X0Xx.x.;X:XqX`._._.OX{.}.3X>X+X$X| $Xc &.K.:./.c.wX,XeX  ",
"    u rX9X<X0Xx.;X&.t.XX_.OX}.}.`.>X+X' +.~ ^.tX6Xq.c.L.yXE.    ",
"      A 5XrX9X0.0X0X-.f.uX. {.}.`.>X@XqXD.:X;.iX/.c. X,XC.      ",
"      2 %.5XpXrX9X0.0.<XaXK ].G sXa.6.aXK.6XiXdXfX X,X,XeX      ",
"        gXK.K.5X5XpXrXrXrXpXdXB G.dX^.4XiXq.fX&XhX,X,XjX        ",
"          8X%.kX6XkX^.^.K.K.kX^.6X6Xq./.dX&X X*X,XC.)           ",
"              lXiXiX6XiXiXiX3.q.q.fXfXc. XwX*XyXE.              ",
"                gXzXfX/.fXfXfXc.&X XwX*X*XyX.X`.                ",
"                    = xX4./ c.wXhXL.^ cXo..                     "
};
