<?xml version="1.0" encoding="UTF-8" standalone="no"?>
<!-- Created with Inkscape (http://www.inkscape.org/) -->
<svg
   xmlns:dc="http://purl.org/dc/elements/1.1/"
   xmlns:cc="http://creativecommons.org/ns#"
   xmlns:rdf="http://www.w3.org/1999/02/22-rdf-syntax-ns#"
   xmlns:svg="http://www.w3.org/2000/svg"
   xmlns="http://www.w3.org/2000/svg"
   xmlns:xlink="http://www.w3.org/1999/xlink"
   xmlns:sodipodi="http://sodipodi.sourceforge.net/DTD/sodipodi-0.dtd"
   xmlns:inkscape="http://www.inkscape.org/namespaces/inkscape"
   width="32"
   height="32"
   id="svg2"
   sodipodi:version="0.32"
   inkscape:version="0.45+devel"
   version="1.0"
   sodipodi:docbase="/home/dobey/Projects/gnome-icon-theme/32x32/emotes"
   sodipodi:docname="face-win.svg"
   inkscape:export-filename="/home/lapo/Desktop/smileys.png"
   inkscape:export-xdpi="90"
   inkscape:export-ydpi="90"
   inkscape:output_extension="org.inkscape.output.svg.inkscape">
  <defs
     id="defs4">
    <linearGradient
       inkscape:collect="always"
       id="linearGradient4140">
      <stop
         style="stop-color:#ffffff;stop-opacity:1;"
         offset="0"
         id="stop4142" />
      <stop
         style="stop-color:#ffffff;stop-opacity:0;"
         offset="1"
         id="stop4144" />
    </linearGradient>
    <linearGradient
       inkscape:collect="always"
       id="linearGradient4148">
      <stop
         style="stop-color:#000000;stop-opacity:1;"
         offset="0"
         id="stop4150" />
      <stop
         style="stop-color:#000000;stop-opacity:0;"
         offset="1"
         id="stop4152" />
    </linearGradient>
    <linearGradient
       inkscape:collect="always"
       id="linearGradient8431">
      <stop
         style="stop-color:#ffffff;stop-opacity:1;"
         offset="0"
         id="stop8433" />
      <stop
         style="stop-color:#ffffff;stop-opacity:0;"
         offset="1"
         id="stop8435" />
    </linearGradient>
    <linearGradient
       id="linearGradient3752">
      <stop
         id="stop3754"
         offset="0"
         style="stop-color:white;stop-opacity:1" />
      <stop
         style="stop-color:#fce94f;stop-opacity:1;"
         offset="0.80000001"
         id="stop3756" />
      <stop
         id="stop3758"
         offset="1"
         style="stop-color:#edd400;stop-opacity:1" />
    </linearGradient>
    <linearGradient
       inkscape:collect="always"
       id="linearGradient3734">
      <stop
         style="stop-color:black;stop-opacity:1;"
         offset="0"
         id="stop3736" />
      <stop
         style="stop-color:black;stop-opacity:0;"
         offset="1"
         id="stop3738" />
    </linearGradient>
    <linearGradient
       id="linearGradient3712">
      <stop
         id="stop3714"
         offset="0"
         style="stop-color:white;stop-opacity:1;" />
      <stop
         id="stop3716"
         offset="1"
         style="stop-color:white;stop-opacity:0.50570345" />
    </linearGradient>
    <linearGradient
       id="linearGradient3512">
      <stop
         style="stop-color:#babdb6;stop-opacity:1"
         offset="0"
         id="stop3514" />
      <stop
         id="stop3524"
         offset="0.1"
         style="stop-color:#e9ebe7;stop-opacity:1;" />
      <stop
         id="stop3520"
         offset="0.34999999"
         style="stop-color:white;stop-opacity:1;" />
      <stop
         style="stop-color:#e9ebe7;stop-opacity:1;"
         offset="0.89999998"
         id="stop3522" />
      <stop
         style="stop-color:#babdb6;stop-opacity:1"
         offset="1"
         id="stop3516" />
    </linearGradient>
    <radialGradient
       inkscape:collect="always"
       xlink:href="#linearGradient3734"
       id="radialGradient14219"
       gradientUnits="userSpaceOnUse"
       cx="12.046875"
       cy="10.046875"
       fx="12.046875"
       fy="10.046875"
       r="9.546875" />
    <radialGradient
       inkscape:collect="always"
       xlink:href="#linearGradient3752"
       id="radialGradient14221"
       gradientUnits="userSpaceOnUse"
       gradientTransform="matrix(1.200799,0,0,1.200799,-1.921023,-1.565398)"
       cx="9.3747082"
       cy="7.8025141"
       fx="9.3747082"
       fy="7.8025141"
       r="10.049342" />
    <linearGradient
       inkscape:collect="always"
       xlink:href="#linearGradient8431"
       id="linearGradient14223"
       gradientUnits="userSpaceOnUse"
       x1="18.825819"
       y1="-140.43388"
       x2="19.23638"
       y2="-134.38734" />
    <radialGradient
       inkscape:collect="always"
       xlink:href="#linearGradient3712"
       id="radialGradient14225"
       gradientUnits="userSpaceOnUse"
       gradientTransform="matrix(1.242401,0,0,1.242401,-1.281477,-0.839422)"
       cx="5.3851099"
       cy="3.2659137"
       fx="5.3851099"
       fy="3.2659137"
       r="10.108456" />
    <linearGradient
       id="linearGradient7519"
       inkscape:collect="always">
      <stop
         id="stop7521"
         offset="0"
         style="stop-color:#2e3436;stop-opacity:1" />
      <stop
         id="stop7523"
         offset="1"
         style="stop-color:#2e3436;stop-opacity:0" />
    </linearGradient>
    <linearGradient
       id="linearGradient7549">
      <stop
         id="stop7551"
         offset="0"
         style="stop-color:#000000;stop-opacity:1;" />
      <stop
         id="stop7553"
         offset="1"
         style="stop-color:#888a85;stop-opacity:1" />
    </linearGradient>
    <linearGradient
       id="linearGradient7567"
       inkscape:collect="always">
      <stop
         id="stop7569"
         offset="0"
         style="stop-color:#ffffff;stop-opacity:1;" />
      <stop
         id="stop7571"
         offset="1"
         style="stop-color:#ffffff;stop-opacity:0;" />
    </linearGradient>
    <linearGradient
       id="linearGradient7620"
       inkscape:collect="always">
      <stop
         id="stop7622"
         offset="0"
         style="stop-color:#2e3436;stop-opacity:1;" />
      <stop
         id="stop7624"
         offset="1"
         style="stop-color:#2e3436;stop-opacity:0;" />
    </linearGradient>
    <linearGradient
       inkscape:collect="always"
       id="linearGradient7638">
      <stop
         style="stop-color:#729fcf;stop-opacity:1"
         offset="0"
         id="stop7640" />
      <stop
         style="stop-color:#729fcf;stop-opacity:0"
         offset="1"
         id="stop7642" />
    </linearGradient>
    <linearGradient
       inkscape:collect="always"
       xlink:href="#linearGradient3512"
       id="linearGradient5934"
       gradientUnits="userSpaceOnUse"
       x1="4.9076123"
       y1="222.90671"
       x2="16.967688"
       y2="222.90671"
       gradientTransform="matrix(1,0,0,0.9868607,0,2.9891935)" />
    <linearGradient
       inkscape:collect="always"
       xlink:href="#linearGradient4148"
       id="linearGradient5936"
       gradientUnits="userSpaceOnUse"
       x1="23.59375"
       y1="177.875"
       x2="23.59375"
       y2="182.56343" />
    <linearGradient
       inkscape:collect="always"
       xlink:href="#linearGradient4140"
       id="linearGradient5938"
       gradientUnits="userSpaceOnUse"
       x1="24.5"
       y1="177.875"
       x2="24.5"
       y2="181.63138" />
    <linearGradient
       inkscape:collect="always"
       xlink:href="#linearGradient4148"
       id="linearGradient5940"
       gradientUnits="userSpaceOnUse"
       x1="23.59375"
       y1="177.875"
       x2="23.59375"
       y2="182.56343" />
    <linearGradient
       inkscape:collect="always"
       xlink:href="#linearGradient4140"
       id="linearGradient5942"
       gradientUnits="userSpaceOnUse"
       x1="24.5"
       y1="177.875"
       x2="24.5"
       y2="181.63138" />
    <linearGradient
       inkscape:collect="always"
       xlink:href="#linearGradient4148"
       id="linearGradient5944"
       gradientUnits="userSpaceOnUse"
       x1="23.59375"
       y1="177.875"
       x2="23.59375"
       y2="182.56343" />
    <linearGradient
       inkscape:collect="always"
       xlink:href="#linearGradient4140"
       id="linearGradient5946"
       gradientUnits="userSpaceOnUse"
       x1="24.5"
       y1="177.875"
       x2="24.5"
       y2="181.63138" />
    <linearGradient
       inkscape:collect="always"
       xlink:href="#linearGradient4148"
       id="linearGradient5948"
       gradientUnits="userSpaceOnUse"
       x1="23.59375"
       y1="177.875"
       x2="23.59375"
       y2="182.56343" />
    <linearGradient
       inkscape:collect="always"
       xlink:href="#linearGradient4140"
       id="linearGradient5950"
       gradientUnits="userSpaceOnUse"
       x1="24.5"
       y1="177.875"
       x2="24.5"
       y2="181.63138" />
    <linearGradient
       inkscape:collect="always"
       xlink:href="#linearGradient4148"
       id="linearGradient5952"
       gradientUnits="userSpaceOnUse"
       x1="23.59375"
       y1="177.875"
       x2="23.59375"
       y2="182.56343" />
    <linearGradient
       inkscape:collect="always"
       xlink:href="#linearGradient4140"
       id="linearGradient5954"
       gradientUnits="userSpaceOnUse"
       x1="24.5"
       y1="177.875"
       x2="24.5"
       y2="181.63138" />
    <linearGradient
       inkscape:collect="always"
       xlink:href="#linearGradient4148"
       id="linearGradient5956"
       gradientUnits="userSpaceOnUse"
       x1="23.59375"
       y1="177.875"
       x2="23.59375"
       y2="182.56343" />
    <linearGradient
       inkscape:collect="always"
       xlink:href="#linearGradient4140"
       id="linearGradient5958"
       gradientUnits="userSpaceOnUse"
       x1="24.5"
       y1="177.875"
       x2="24.5"
       y2="181.63138" />
    <linearGradient
       inkscape:collect="always"
       xlink:href="#linearGradient4148"
       id="linearGradient5960"
       gradientUnits="userSpaceOnUse"
       x1="23.59375"
       y1="177.875"
       x2="23.59375"
       y2="182.56343" />
    <linearGradient
       inkscape:collect="always"
       xlink:href="#linearGradient4140"
       id="linearGradient5962"
       gradientUnits="userSpaceOnUse"
       x1="24.5"
       y1="177.875"
       x2="24.5"
       y2="181.63138" />
    <linearGradient
       inkscape:collect="always"
       xlink:href="#linearGradient7519"
       id="linearGradient6051"
       gradientUnits="userSpaceOnUse"
       gradientTransform="matrix(0.6666667,0,0,0.6666667,3.085033e-3,-0.9894104)"
       x1="43.78125"
       y1="14.6875"
       x2="44.3125"
       y2="13.375" />
    <linearGradient
       inkscape:collect="always"
       xlink:href="#linearGradient7620"
       id="linearGradient6057"
       gradientUnits="userSpaceOnUse"
       gradientTransform="matrix(0.6666667,0,0,0.6666667,3.085033e-3,-1.6560804)"
       x1="4.5496697"
       y1="15.21875"
       x2="4.5496697"
       y2="14.71875" />
    <linearGradient
       inkscape:collect="always"
       xlink:href="#linearGradient7549"
       id="linearGradient6097"
       gradientUnits="userSpaceOnUse"
       gradientTransform="scale(0.6666667,0.6666667)"
       x1="22"
       y1="19"
       x2="-3.8114223"
       y2="17.493725" />
    <radialGradient
       inkscape:collect="always"
       xlink:href="#linearGradient7638"
       id="radialGradient6099"
       gradientUnits="userSpaceOnUse"
       gradientTransform="matrix(1.4271074,0,0,0.7135537,-7.225952,2.2588835)"
       cx="11.339117"
       cy="21.94875"
       fx="11.339117"
       fy="21.94875"
       r="8" />
    <linearGradient
       inkscape:collect="always"
       xlink:href="#linearGradient7567"
       id="linearGradient6101"
       gradientUnits="userSpaceOnUse"
       x1="12.3125"
       y1="17.102404"
       x2="12.3125"
       y2="23.001324" />
    <linearGradient
       inkscape:collect="always"
       xlink:href="#linearGradient7549"
       id="linearGradient6103"
       gradientUnits="userSpaceOnUse"
       gradientTransform="scale(0.6666667,0.6666667)"
       x1="40.875"
       y1="20.125"
       x2="19.25"
       y2="16" />
    <radialGradient
       inkscape:collect="always"
       xlink:href="#linearGradient7638"
       id="radialGradient6105"
       gradientUnits="userSpaceOnUse"
       gradientTransform="matrix(-1.4271074,0,0,0.7135537,33.225952,2.2588835)"
       cx="10.472023"
       cy="20.833914"
       fx="10.472023"
       fy="20.833914"
       r="8" />
    <linearGradient
       inkscape:collect="always"
       xlink:href="#linearGradient7567"
       id="linearGradient6107"
       gradientUnits="userSpaceOnUse"
       x1="15.936422"
       y1="17.340279"
       x2="15.936422"
       y2="23.019377" />
  </defs>
  <sodipodi:namedview
     id="base"
     pagecolor="#ffffff"
     bordercolor="#666666"
     borderopacity="1.0"
     inkscape:pageopacity="0"
     inkscape:pageshadow="2"
     inkscape:zoom="1"
     inkscape:cx="19.771947"
     inkscape:cy="6.5343446"
     inkscape:document-units="px"
     inkscape:current-layer="g9883"
     width="32px"
     height="32px"
     inkscape:showpageshadow="false"
     showgrid="false"
     gridempspacing="2"
     gridspacingx="0.5px"
     gridspacingy="0.5px"
     borderlayer="false"
     showborder="true"
     showguides="false"
     inkscape:guide-bbox="true"
     inkscape:window-width="1112"
     inkscape:window-height="940"
     inkscape:window-x="50"
     inkscape:window-y="45"
     inkscape:grid-points="true"
     inkscape:grid-bbox="true"
     inkscape:object-points="false"
     inkscape:object-paths="false">
    <sodipodi:guide
       orientation="vertical"
       position="16"
       id="guide8441" />
    <sodipodi:guide
       orientation="horizontal"
       position="175"
       id="guide8443" />
    <sodipodi:guide
       orientation="horizontal"
       position="167.00978"
       id="guide7776" />
    <sodipodi:guide
       orientation="vertical"
       position="71.020038"
       id="guide7778" />
    <inkscape:grid
       type="xygrid"
       id="grid5745" />
  </sodipodi:namedview>
  <metadata
     id="metadata7">
    <rdf:RDF>
      <cc:Work
         rdf:about="">
        <dc:format>image/svg+xml</dc:format>
        <dc:type
           rdf:resource="http://purl.org/dc/dcmitype/StillImage" />
        <dc:title>Emotes</dc:title>
        <dc:creator>
          <cc:Agent>
            <dc:title>Lapo Calamandrei</dc:title>
          </cc:Agent>
        </dc:creator>
        <cc:license
           rdf:resource="http://creativecommons.org/licenses/GPL/2.0/" />
      </cc:Work>
      <cc:License
         rdf:about="http://creativecommons.org/licenses/GPL/2.0/">
        <cc:permits
           rdf:resource="http://web.resource.org/cc/Reproduction" />
        <cc:permits
           rdf:resource="http://web.resource.org/cc/Distribution" />
        <cc:requires
           rdf:resource="http://web.resource.org/cc/Notice" />
        <cc:permits
           rdf:resource="http://web.resource.org/cc/DerivativeWorks" />
        <cc:requires
           rdf:resource="http://web.resource.org/cc/ShareAlike" />
        <cc:requires
           rdf:resource="http://web.resource.org/cc/SourceCode" />
      </cc:License>
    </rdf:RDF>
  </metadata>
  <g
     inkscape:label="Livello 1"
     inkscape:groupmode="layer"
     id="layer1"
     style="display:inline">
    <path
       sodipodi:nodetypes="csc"
       id="path5747"
       d="M 28.30411,9.3439196 C 28.954938,9.3439196 29.930388,9.0939196 29.605133,8.3439196 C 29.279877,7.5939196 27.003087,7.3439196 27.003087,7.3439196"
       style="fill:none;fill-rule:evenodd;stroke:#2e3436;stroke-width:3.00000024;stroke-linecap:round;stroke-linejoin:round;stroke-miterlimit:4;stroke-dasharray:none;stroke-opacity:1;display:inline" />
    <path
       sodipodi:nodetypes="csc"
       id="path5749"
       d="M 28.336421,9.3439196 C 29.003412,9.3439196 30.003087,9.0568896 29.669754,8.1957796 C 29.336421,7.3346596 27.003087,7.0476296 27.003087,7.0476296"
       style="fill:none;fill-rule:evenodd;stroke:#d3d7cf;stroke-width:1px;stroke-linecap:round;stroke-linejoin:round;stroke-opacity:1;display:inline" />
    <path
       sodipodi:nodetypes="csc"
       id="path5751"
       d="M 3.7359779,9.3439196 C 3.0689858,9.3439196 2.0693111,9.0939196 2.4026445,8.3439196 C 2.7359778,7.5939196 5.0693113,7.3439196 5.0693113,7.3439196"
       style="fill:none;fill-rule:evenodd;stroke:#2e3436;stroke-width:3.00000024;stroke-linecap:round;stroke-linejoin:round;stroke-miterlimit:4;stroke-dasharray:none;stroke-opacity:1;display:inline" />
    <path
       sodipodi:nodetypes="csc"
       id="path5753"
       d="M 3.7359779,9.3439196 C 3.0689858,9.3439196 2.0693111,9.0939196 2.4026445,8.3439196 C 2.7359778,7.5939196 5.0693113,7.3439196 5.0693113,7.3439196"
       style="fill:none;fill-rule:evenodd;stroke:#d3d7cf;stroke-width:1px;stroke-linecap:round;stroke-linejoin:round;stroke-opacity:1;display:inline" />
    <g
       id="g9883"
       transform="translate(0,-300)">
      <g
         transform="translate(0,300)"
         id="g7979">
        <path
           sodipodi:type="arc"
           style="opacity:0.4;fill:url(#radialGradient14219);fill-opacity:1;stroke:none;stroke-width:0.46570092;stroke-linecap:round;stroke-linejoin:miter;stroke-miterlimit:4;stroke-dasharray:none;stroke-dashoffset:0;stroke-opacity:1;display:inline"
           id="path7962"
           sodipodi:cx="12.046875"
           sodipodi:cy="10.046875"
           sodipodi:rx="9.546875"
           sodipodi:ry="9.546875"
           d="M 21.59375 10.046875 A 9.546875 9.546875 0 1 1  2.5,10.046875 A 9.546875 9.546875 0 1 1  21.59375 10.046875 z"
           transform="matrix(1.6061103,0,0,0.8030552,-3.3486088,15.598474)"
           inkscape:export-filename="/home/lapo/Desktop/something-along-the-lines.png"
           inkscape:export-xdpi="90"
           inkscape:export-ydpi="90" />
        <path
           sodipodi:type="arc"
           style="fill:url(#radialGradient14221);fill-opacity:1;stroke:#c4a000;stroke-width:0.70716023;stroke-linecap:round;stroke-linejoin:miter;stroke-miterlimit:4;stroke-dasharray:none;stroke-dashoffset:0;stroke-opacity:1;display:inline"
           id="path7970"
           sodipodi:cx="12.046875"
           sodipodi:cy="10.046875"
           sodipodi:rx="9.546875"
           sodipodi:ry="9.546875"
           d="M 21.59375 10.046875 A 9.546875 9.546875 0 1 1  2.5,10.046875 A 9.546875 9.546875 0 1 1  21.59375 10.046875 z"
           transform="matrix(1.4141063,0,0,1.4141063,-1.0358578,0.7929467)"
           inkscape:export-filename="/home/lapo/Desktop/something-along-the-lines.png"
           inkscape:export-xdpi="90"
           inkscape:export-ydpi="90" />
        <path
           sodipodi:type="arc"
           style="fill:url(#linearGradient14223);fill-opacity:1;fill-rule:evenodd;stroke:none;stroke-width:1;stroke-linecap:round;stroke-linejoin:miter;stroke-miterlimit:4;stroke-dasharray:none;stroke-dashoffset:0.69999992;stroke-opacity:1;display:inline"
           id="path7975"
           sodipodi:cx="19.5625"
           sodipodi:cy="-135.96875"
           sodipodi:rx="6.125"
           sodipodi:ry="5.96875"
           d="M 25.6875 -135.96875 A 6.125 5.96875 0 1 1  13.4375,-135.96875 A 6.125 5.96875 0 1 1  25.6875 -135.96875 z"
           transform="matrix(1.4718871,-0.394391,0.3035365,1.1328139,27.162035,172.2491)"
           inkscape:transform-center-y="-7.3651901"
           inkscape:transform-center-x="1.9734894" />
        <path
           sodipodi:type="arc"
           style="fill:none;fill-opacity:1;stroke:url(#radialGradient14225);stroke-width:0.76374972;stroke-linecap:round;stroke-linejoin:miter;stroke-miterlimit:4;stroke-dasharray:none;stroke-dashoffset:0;stroke-opacity:1;display:inline"
           id="path7977"
           sodipodi:cx="12.046875"
           sodipodi:cy="10.046875"
           sodipodi:rx="9.546875"
           sodipodi:ry="9.546875"
           d="M 21.59375 10.046875 A 9.546875 9.546875 0 1 1  2.5,10.046875 A 9.546875 9.546875 0 1 1  21.59375 10.046875 z"
           transform="matrix(1.3093302,0,0,1.309329,0.2266511,1.8453355)"
           inkscape:export-filename="/home/lapo/Desktop/something-along-the-lines.png"
           inkscape:export-xdpi="90"
           inkscape:export-ydpi="90" />
      </g>
      <g
         transform="matrix(1,0,0,0.8949571,0,301.78871)"
         id="g8464">
        <g
           transform="matrix(1.4022049,0,0,1.4939968,0.580957,-313.40166)"
           style="display:inline"
           id="g8112">
          <path
             style="opacity:1;fill:url(#linearGradient5934);fill-opacity:1;stroke:#edd400;stroke-width:0.73032874;stroke-linecap:round;stroke-linejoin:miter;stroke-miterlimit:4;stroke-dasharray:none;stroke-dashoffset:0;stroke-opacity:1;display:inline"
             d="M 3.53125,221.57884 C 3.5182669,221.74431 3.5,221.90354 3.5,222.07227 C 3.5,224.04599 4.5,227.5 11,227.5 C 17.5,227.5 18.5,224.04599 18.5,222.07227 C 18.5,221.90354 18.481733,221.74431 18.46875,221.57884 L 3.53125,221.57884 z"
             id="path8114"
             sodipodi:nodetypes="cszscc" />
        </g>
        <g
           id="g8118"
           style="opacity:0.76628352"
           transform="matrix(0.6376681,0,0,0.6364677,0.7028339,-94.109117)">
          <path
             id="path8120"
             d="M 23.5,177.5 L 23.5,188.5"
             style="opacity:0.06000001;fill:none;fill-opacity:1;fill-rule:evenodd;stroke:url(#linearGradient5936);stroke-width:1.6592561px;stroke-linecap:round;stroke-linejoin:miter;stroke-opacity:1" />
          <path
             id="path8122"
             d="M 24.5,177.5 L 24.5,188.5"
             style="fill:none;fill-opacity:1;fill-rule:evenodd;stroke:url(#linearGradient5938);stroke-width:1.6592561px;stroke-linecap:square;stroke-linejoin:miter;stroke-opacity:1;display:inline" />
          <g
             style="opacity:0.8;stroke-linecap:square"
             transform="translate(5,0)"
             id="g8124">
            <path
               style="opacity:0.06000001;fill:none;fill-opacity:1;fill-rule:evenodd;stroke:url(#linearGradient5940);stroke-width:1.6592561px;stroke-linecap:square;stroke-linejoin:miter;stroke-opacity:1;display:inline"
               d="M 23.5,177.5 L 23.5,188.5"
               id="path8126" />
            <path
               style="fill:none;fill-opacity:1;fill-rule:evenodd;stroke:url(#linearGradient5942);stroke-width:1.6592561px;stroke-linecap:square;stroke-linejoin:miter;stroke-opacity:1;display:inline"
               d="M 24.5,177.5 L 24.5,188.5"
               id="path8128" />
          </g>
          <g
             transform="translate(-5,0)"
             id="g8130"
             style="opacity:0.8;stroke-linecap:square;display:inline">
            <path
               style="opacity:0.06000001;fill:none;fill-opacity:1;fill-rule:evenodd;stroke:url(#linearGradient5944);stroke-width:1.6592561px;stroke-linecap:square;stroke-linejoin:miter;stroke-opacity:1;display:inline"
               d="M 23.5,177.5 L 23.5,188.5"
               id="path8132" />
            <path
               style="fill:none;fill-opacity:1;fill-rule:evenodd;stroke:url(#linearGradient5946);stroke-width:1.6592561px;stroke-linecap:square;stroke-linejoin:miter;stroke-opacity:1;display:inline"
               d="M 24.5,177.5 L 24.5,188.5"
               id="path8134" />
          </g>
          <g
             transform="translate(-9,0)"
             id="g8136"
             style="opacity:0.7;stroke-linecap:square;display:inline">
            <path
               style="opacity:0.06000001;fill:none;fill-opacity:1;fill-rule:evenodd;stroke:url(#linearGradient5948);stroke-width:1.6592561px;stroke-linecap:square;stroke-linejoin:miter;stroke-opacity:1;display:inline"
               d="M 23.5,177.5 L 23.5,188.5"
               id="path8138" />
            <path
               style="fill:none;fill-opacity:1;fill-rule:evenodd;stroke:url(#linearGradient5950);stroke-width:1.6592561px;stroke-linecap:square;stroke-linejoin:miter;stroke-opacity:1;display:inline"
               d="M 24.5,177.5 L 24.5,188.5"
               id="path8140" />
          </g>
          <g
             transform="translate(9,0)"
             id="g8142"
             style="opacity:0.7;stroke-linecap:square;display:inline">
            <path
               style="opacity:0.06000001;fill:none;fill-opacity:1;fill-rule:evenodd;stroke:url(#linearGradient5952);stroke-width:1.6592561px;stroke-linecap:square;stroke-linejoin:miter;stroke-opacity:1;display:inline"
               d="M 23.5,177.5 L 23.5,188.5"
               id="path8144" />
            <path
               style="fill:none;fill-opacity:1;fill-rule:evenodd;stroke:url(#linearGradient5954);stroke-width:1.6592561px;stroke-linecap:square;stroke-linejoin:miter;stroke-opacity:1;display:inline"
               d="M 24.5,177.5 L 24.5,188.5"
               id="path8146" />
          </g>
          <g
             transform="translate(12,0)"
             id="g8148"
             style="opacity:0.5;stroke-linecap:square;display:inline">
            <path
               style="opacity:0.06000001;fill:none;fill-opacity:1;fill-rule:evenodd;stroke:url(#linearGradient5956);stroke-width:1.6592561px;stroke-linecap:square;stroke-linejoin:miter;stroke-opacity:1;display:inline"
               d="M 23.5,177.5 L 23.5,188.5"
               id="path8150" />
            <path
               style="fill:none;fill-opacity:1;fill-rule:evenodd;stroke:url(#linearGradient5958);stroke-width:1.6592561px;stroke-linecap:square;stroke-linejoin:miter;stroke-opacity:1;display:inline"
               d="M 24.5,177.5 L 24.5,188.5"
               id="path8152" />
          </g>
          <g
             transform="translate(-12,0)"
             id="g8154"
             style="opacity:0.5;stroke-linecap:square;display:inline">
            <path
               style="opacity:0.06000001;fill:none;fill-opacity:1;fill-rule:evenodd;stroke:url(#linearGradient5960);stroke-width:1.6592561px;stroke-linecap:square;stroke-linejoin:miter;stroke-opacity:1;display:inline"
               d="M 23.5,177.5 L 23.5,188.5"
               id="path8156" />
            <path
               style="fill:none;fill-opacity:1;fill-rule:evenodd;stroke:url(#linearGradient5962);stroke-width:1.6592561px;stroke-linecap:square;stroke-linejoin:miter;stroke-opacity:1;display:inline"
               d="M 24.5,177.5 L 24.5,188.5"
               id="path8158" />
          </g>
        </g>
      </g>
    </g>
    <path
       id="path5755"
       d="M 4.9822519,9.3439196 C 4.2558345,9.3439196 3.0030851,9.6772596 3.0030851,11.32309 L 3.0030851,12.01059 C 3.0030851,14.34392 5.5304186,15.34392 8.6697521,15.34392 C 11.809087,15.34392 14.33642,14.37101 14.33642,13.15642 L 14.33642,11.38559 C 14.686753,11.38613 14.980939,11.11495 15.003087,10.76059 C 15.019376,10.75252 15.00804,10.7544 15.065587,10.73976 C 15.261923,10.68978 15.645944,10.67726 16.003087,10.67726 C 16.360228,10.67726 16.74425,10.68978 16.940587,10.73976 C 16.998133,10.7544 16.986797,10.75252 17.003087,10.76059 C 17.025234,11.11495 17.31942,11.38613 17.669754,11.38559 L 17.669754,13.15642 C 17.669754,14.37101 20.197086,15.34392 23.336419,15.34392 C 26.475753,15.34392 29.003087,14.34392 29.003087,12.01059 L 29.003087,11.32309 C 29.003087,9.6772596 27.750337,9.3439196 27.023921,9.3439196 C 26.003087,9.3439196 24.753503,10.01059 22.669754,10.01059 C 20.818485,10.01059 19.648919,10.01059 19.648919,10.01059 C 19.265243,10.01059 18.730367,10.16672 18.315587,10.42726 C 18.261797,10.18364 18.126793,9.9566096 17.961419,9.8022596 C 17.740922,9.5964596 17.503132,9.5064396 17.273919,9.4480896 C 16.815494,9.3313996 16.360228,9.3439196 16.003087,9.3439196 C 15.645944,9.3439196 15.190679,9.3313996 14.732253,9.4480896 C 14.503041,9.5064396 14.265252,9.5964596 14.044753,9.8022596 C 13.879379,9.9566096 13.744376,10.18364 13.690587,10.42726 C 13.275807,10.16672 12.74093,10.01059 12.357253,10.01059 C 12.357253,10.01059 11.187687,10.01059 9.3364188,10.01059 C 7.2526687,10.01059 6.0030853,9.3439196 4.9822519,9.3439196 z"
       style="opacity:0.15;fill:#000000;fill-opacity:1;stroke:#000000;stroke-width:1;stroke-linecap:square;stroke-linejoin:round;stroke-miterlimit:4;stroke-dasharray:none;stroke-dashoffset:0.7;stroke-opacity:1;display:inline" />
    <g
       transform="matrix(1.037037,0,0,1.0019268,-0.5895064,-1.1862563)"
       id="g5757"
       style="display:inline">
      <path
         style="fill:url(#linearGradient6097);fill-opacity:1;stroke:#000000;stroke-width:0.98103583;stroke-linecap:square;stroke-linejoin:round;stroke-miterlimit:4;stroke-dasharray:none;stroke-dashoffset:0.7;stroke-opacity:1;display:inline"
         d="M 12.354167,10.333334 C 13.081632,10.333334 14.333334,10.918369 14.333334,11.645834 L 14.333334,13.479167 C 14.333334,14.69375 11.806001,15.666667 8.6666671,15.666667 C 5.5273336,15.666667 3.0000001,14.666667 3.0000001,12.333334 L 3.0000001,11.645834 C 3.0000001,10 4.2527495,9.6666671 4.9791669,9.6666671 C 6.0000003,9.6666671 7.2495837,10.333334 9.3333338,10.333334 C 11.184601,10.333334 12.354167,10.333334 12.354167,10.333334 z"
         id="path5759"
         sodipodi:nodetypes="cccsccssc" />
      <path
         sodipodi:type="inkscape:offset"
         inkscape:radius="-0.74213904"
         inkscape:original="M 7.46875 15.5 C 6.379124 15.5 4.5 16 4.5 18.46875 L 4.5 19.5 C 4.5 23 8.291 24.5 13 24.5 C 17.709 24.499999 21.5 23.040624 21.5 21.21875 L 21.5 18.46875 C 21.5 17.377553 19.622447 16.5 18.53125 16.5 C 18.53125 16.5 16.776901 16.5 14 16.5 C 10.874375 16.5 9 15.5 7.46875 15.5 z "
         style="opacity:0.25;fill:url(#radialGradient6099);fill-opacity:1;stroke:none;stroke-width:1;stroke-linecap:square;stroke-linejoin:round;stroke-miterlimit:4;stroke-dasharray:none;stroke-dashoffset:0.7;stroke-opacity:1;display:inline"
         id="path5761"
         d="M 7.46875,16.25 C 7.0374529,16.25 6.4276651,16.350247 6,16.65625 C 5.5723349,16.962253 5.25,17.422672 5.25,18.46875 L 5.25,19.5 C 5.25,20.982052 5.9739492,21.931841 7.34375,22.65625 C 8.7135508,23.380659 10.7243,23.75 13,23.75 C 15.277834,23.75 17.332568,23.390452 18.75,22.84375 C 19.458716,22.570399 20.01451,22.239136 20.34375,21.9375 C 20.67299,21.635864 20.75,21.416842 20.75,21.21875 L 20.75,18.46875 C 20.75,18.348802 20.554918,18.007954 20.0625,17.71875 C 19.570082,17.429546 18.877903,17.25 18.53125,17.25 C 18.53125,17.25 16.776901,17.25 14,17.25 C 10.716084,17.25 8.6768918,16.25 7.46875,16.25 z"
         transform="matrix(0.6666667,0,0,0.6666667,0,-0.6666667)" />
      <path
         sodipodi:type="inkscape:offset"
         inkscape:radius="-1.4884868"
         inkscape:original="M 7.46875 14.5 C 6.379124 14.5 4.5 15 4.5 17.46875 L 4.5 18.5 C 4.5 22 8.291 23.5 13 23.5 C 17.709 23.499999 21.5 22.040624 21.5 20.21875 L 21.5 17.46875 C 21.5 16.377553 19.622447 15.5 18.53125 15.5 C 18.53125 15.5 16.776901 15.5 14 15.5 C 10.874375 15.5 9 14.5 7.46875 14.5 z "
         style="opacity:0.15;fill:none;fill-opacity:1;stroke:url(#linearGradient6101);stroke-width:1.47155392;stroke-linecap:square;stroke-linejoin:round;stroke-miterlimit:4;stroke-dasharray:none;stroke-dashoffset:0.7;stroke-opacity:1;display:inline"
         id="path5763"
         d="M 7.46875,16 C 7.1516125,16 6.6858348,16.103562 6.4375,16.28125 C 6.1891652,16.458938 6,16.612036 6,17.46875 L 6,18.5 C 6,19.712585 6.4852179,20.364182 7.6875,21 C 8.8897821,21.635818 10.803547,22 13,22 C 15.200734,22 17.170936,21.656816 18.46875,21.15625 C 19.117657,20.905967 19.61482,20.615986 19.84375,20.40625 C 20.07268,20.196514 20,20.158005 20,20.21875 L 20,17.46875 C 20,17.776866 20.034656,17.565993 19.65625,17.34375 C 19.277844,17.121507 18.677829,17 18.53125,17 C 18.53125,17 16.776901,17 14,17 C 10.556895,17 8.3519513,16 7.46875,16 z"
         transform="scale(0.6666667,0.6666667)" />
      <path
         style="fill:url(#linearGradient6103);fill-opacity:1;stroke:#000000;stroke-width:0.98103583;stroke-linecap:square;stroke-linejoin:round;stroke-miterlimit:4;stroke-dasharray:none;stroke-dashoffset:0.7;stroke-opacity:1;display:inline"
         d="M 19.645834,10.333334 C 18.91837,10.333334 17.666668,10.918369 17.666668,11.645834 L 17.666668,13.479167 C 17.666668,14.69375 20.194001,15.666667 23.333334,15.666667 C 26.472668,15.666667 29.000001,14.666667 29.000001,12.333334 L 29.000001,11.645834 C 29.000001,10 27.747252,9.6666671 27.020835,9.6666671 C 26.000001,9.6666671 24.750418,10.333334 22.666668,10.333334 C 20.8154,10.333334 19.645834,10.333334 19.645834,10.333334 z"
         id="path5765"
         sodipodi:nodetypes="cccsccssc" />
      <path
         sodipodi:type="inkscape:offset"
         inkscape:radius="-0.74417919"
         inkscape:original="M 7.46875 15.5 C 6.379124 15.5 4.5 16 4.5 18.46875 L 4.5 19.5 C 4.5 23 8.291 24.5 13 24.5 C 17.709 24.499999 21.5 23.040624 21.5 21.21875 L 21.5 18.46875 C 21.5 17.377553 19.622447 16.5 18.53125 16.5 C 18.53125 16.5 16.776901 16.5 14 16.5 C 10.874375 16.5 9 15.5 7.46875 15.5 z "
         style="opacity:0.25;fill:url(#radialGradient6105);fill-opacity:1;stroke:none;stroke-width:1;stroke-linecap:square;stroke-linejoin:round;stroke-miterlimit:4;stroke-dasharray:none;stroke-dashoffset:0.7;stroke-opacity:1;display:inline"
         id="path5767"
         d="M 7.46875,16.25 C 7.0377649,16.25 6.4271749,16.350598 6,16.65625 C 5.5728251,16.961902 5.25,17.423189 5.25,18.46875 L 5.25,19.5 C 5.25,20.981316 5.9744071,21.932084 7.34375,22.65625 C 8.7130929,23.380416 10.724517,23.75 13,23.75 C 15.277623,23.75 17.332895,23.390326 18.75,22.84375 C 19.458553,22.570462 20.014784,22.238885 20.34375,21.9375 C 20.672716,21.636115 20.75,21.416134 20.75,21.21875 L 20.75,18.46875 C 20.75,18.349972 20.554607,18.007771 20.0625,17.71875 C 19.570393,17.429729 18.877356,17.25 18.53125,17.25 C 18.53125,17.25 16.776901,17.25 14,17.25 C 10.715649,17.25 8.6760036,16.25 7.46875,16.25 z"
         transform="matrix(-0.6666667,0,0,0.6666667,32.000002,-0.6666667)" />
      <path
         sodipodi:type="inkscape:offset"
         inkscape:radius="-1.4591036"
         inkscape:original="M 7.46875 14.5 C 6.379124 14.5 4.5 15 4.5 17.46875 L 4.5 18.5 C 4.5 22 8.291 23.5 13 23.5 C 17.709 23.499999 21.5 22.040624 21.5 20.21875 L 21.5 17.46875 C 21.5 16.377553 19.622447 15.5 18.53125 15.5 C 18.53125 15.5 16.776901 15.5 14 15.5 C 10.874375 15.5 9 14.5 7.46875 14.5 z "
         style="opacity:0.15;fill:none;fill-opacity:1;stroke:url(#linearGradient6107);stroke-width:1.47155392;stroke-linecap:square;stroke-linejoin:round;stroke-miterlimit:4;stroke-dasharray:none;stroke-dashoffset:0.7;stroke-opacity:1;display:inline"
         id="path5769"
         d="M 7.46875,15.96875 C 7.1471181,15.96875 6.6928949,16.06726 6.4375,16.25 C 6.1821051,16.43274 5.96875,16.604581 5.96875,17.46875 L 5.96875,18.5 C 5.96875,19.723194 6.4473729,20.391945 7.65625,21.03125 C 8.8651271,21.670555 10.800427,22.03125 13,22.03125 C 15.203769,22.03125 17.197476,21.689882 18.5,21.1875 C 19.151262,20.936309 19.610871,20.650854 19.84375,20.4375 C 20.076629,20.224146 20.03125,20.168195 20.03125,20.21875 L 20.03125,17.46875 C 20.03125,17.760014 20.070395,17.568629 19.6875,17.34375 C 19.304605,17.118871 18.685706,16.96875 18.53125,16.96875 C 18.53125,16.96875 16.776901,16.96875 14,16.96875 C 10.563162,16.96875 8.364744,15.96875 7.46875,15.96875 z"
         transform="matrix(-0.6666667,0,0,0.6666667,32.000002,0)" />
    </g>
    <path
       sodipodi:nodetypes="cs"
       id="path5771"
       d="M 3.7359779,9.3439196 C 3.0689858,9.3439196 2.0693111,9.0105896 2.4026445,8.0105896"
       style="fill:none;fill-opacity:1;fill-rule:evenodd;stroke:url(#linearGradient6057);stroke-width:3.00000024;stroke-linecap:round;stroke-linejoin:round;stroke-miterlimit:4;stroke-dasharray:none;stroke-opacity:1;display:inline" />
    <path
       sodipodi:nodetypes="cs"
       id="path5773"
       d="M 3.7359779,9.3439196 C 3.0689858,9.3439196 2.0693111,9.0105896 2.4026445,8.0105896"
       style="fill:none;fill-rule:evenodd;stroke:#d3d7cf;stroke-width:1px;stroke-linecap:round;stroke-linejoin:round;stroke-opacity:1;display:inline" />
    <path
       sodipodi:nodetypes="csc"
       id="path5775"
       d="M 14.33642,10.17726 C 14.33642,9.5105896 15.288801,9.5105896 16.003087,9.5105896 C 16.717372,9.5105896 17.669754,9.5105896 17.669754,10.17726"
       style="fill:none;fill-rule:evenodd;stroke:#2e3436;stroke-width:3.00000024;stroke-linecap:round;stroke-linejoin:miter;stroke-miterlimit:4;stroke-dasharray:none;stroke-opacity:1;display:inline" />
    <path
       sodipodi:nodetypes="csc"
       id="path5777"
       d="M 14.33642,10.17726 C 14.33642,9.5105896 15.288801,9.5105896 16.003087,9.5105896 C 16.717372,9.5105896 17.669754,9.5105896 17.669754,10.17726"
       style="fill:none;fill-rule:evenodd;stroke:#d3d7cf;stroke-width:1;stroke-linecap:round;stroke-linejoin:miter;stroke-miterlimit:4;stroke-dasharray:none;stroke-opacity:1;display:inline" />
    <path
       sodipodi:nodetypes="cs"
       id="path5779"
       d="M 28.336421,9.3439196 C 29.003412,9.3439196 30.003087,9.0105896 29.669754,8.0105896"
       style="fill:none;fill-opacity:1;fill-rule:evenodd;stroke:url(#linearGradient6051);stroke-width:3.00000024;stroke-linecap:round;stroke-linejoin:round;stroke-miterlimit:4;stroke-dasharray:none;stroke-opacity:1;display:inline" />
    <path
       sodipodi:nodetypes="cs"
       id="path5781"
       d="M 28.336421,9.3439196 C 29.003412,9.3439196 30.003087,9.0105896 29.669754,8.0105896"
       style="fill:none;fill-rule:evenodd;stroke:#d3d7cf;stroke-width:1px;stroke-linecap:round;stroke-linejoin:round;stroke-opacity:1;display:inline" />
    <path
       transform="translate(-7.163582,-7.1560763)"
       d="M 22.5,16.5 A 0.5,0.5 0 1 1 21.5,16.5 A 0.5,0.5 0 1 1 22.5,16.5 z"
       sodipodi:ry="0.5"
       sodipodi:rx="0.5"
       sodipodi:cy="16.5"
       sodipodi:cx="22"
       id="path5783"
       style="fill:#ffffff;fill-opacity:1;stroke:none;stroke-width:1;stroke-linecap:round;stroke-linejoin:round;stroke-miterlimit:4;stroke-dasharray:none;stroke-dashoffset:0.7;stroke-opacity:1;display:inline"
       sodipodi:type="arc" />
    <path
       transform="translate(-19.496916,-7.9894063)"
       d="M 22.5,16.5 A 0.5,0.5 0 1 1 21.5,16.5 A 0.5,0.5 0 1 1 22.5,16.5 z"
       sodipodi:ry="0.5"
       sodipodi:rx="0.5"
       sodipodi:cy="16.5"
       sodipodi:cx="22"
       id="path5785"
       style="fill:#ffffff;fill-opacity:1;stroke:none;stroke-width:1;stroke-linecap:round;stroke-linejoin:round;stroke-miterlimit:4;stroke-dasharray:none;stroke-dashoffset:0.7;stroke-opacity:1;display:inline"
       sodipodi:type="arc" />
    <path
       transform="translate(6.5030853,-7.3227363)"
       d="M 22.5,16.5 A 0.5,0.5 0 1 1 21.5,16.5 A 0.5,0.5 0 1 1 22.5,16.5 z"
       sodipodi:ry="0.5"
       sodipodi:rx="0.5"
       sodipodi:cy="16.5"
       sodipodi:cx="22"
       id="path5787"
       style="fill:#ffffff;fill-opacity:1;stroke:none;stroke-width:1;stroke-linecap:round;stroke-linejoin:round;stroke-miterlimit:4;stroke-dasharray:none;stroke-dashoffset:0.7;stroke-opacity:1;display:inline"
       sodipodi:type="arc" />
  </g>
</svg>
