<?xml version="1.0" encoding="UTF-8" standalone="no"?>
<!-- Created with Inkscape (http://www.inkscape.org/) -->
<svg
   xmlns:dc="http://purl.org/dc/elements/1.1/"
   xmlns:cc="http://creativecommons.org/ns#"
   xmlns:rdf="http://www.w3.org/1999/02/22-rdf-syntax-ns#"
   xmlns:svg="http://www.w3.org/2000/svg"
   xmlns="http://www.w3.org/2000/svg"
   xmlns:xlink="http://www.w3.org/1999/xlink"
   xmlns:sodipodi="http://sodipodi.sourceforge.net/DTD/sodipodi-0.dtd"
   xmlns:inkscape="http://www.inkscape.org/namespaces/inkscape"
   width="32"
   height="32"
   id="svg2"
   sodipodi:version="0.32"
   inkscape:version="0.45+devel"
   version="1.0"
   sodipodi:docbase="/home/dobey/Projects/gnome-icon-theme/32x32/emotes"
   sodipodi:docname="face-smile.svg"
   inkscape:export-filename="/home/lapo/Desktop/smileys.png"
   inkscape:export-xdpi="90"
   inkscape:export-ydpi="90"
   inkscape:output_extension="org.inkscape.output.svg.inkscape">
  <defs
     id="defs4">
    <linearGradient
       inkscape:collect="always"
       id="linearGradient8431">
      <stop
         style="stop-color:#ffffff;stop-opacity:1;"
         offset="0"
         id="stop8433" />
      <stop
         style="stop-color:#ffffff;stop-opacity:0;"
         offset="1"
         id="stop8435" />
    </linearGradient>
    <linearGradient
       inkscape:collect="always"
       id="linearGradient7810">
      <stop
         style="stop-color:#ffffff;stop-opacity:1;"
         offset="0"
         id="stop7812" />
      <stop
         style="stop-color:#ffffff;stop-opacity:0;"
         offset="1"
         id="stop7814" />
    </linearGradient>
    <linearGradient
       inkscape:collect="always"
       id="linearGradient7776">
      <stop
         style="stop-color:#2e3436;stop-opacity:1"
         offset="0"
         id="stop7778" />
      <stop
         style="stop-color:#000000;stop-opacity:1"
         offset="1"
         id="stop7780" />
    </linearGradient>
    <linearGradient
       inkscape:collect="always"
       id="linearGradient3535">
      <stop
         style="stop-color:white;stop-opacity:1;"
         offset="0"
         id="stop3537" />
      <stop
         style="stop-color:white;stop-opacity:0;"
         offset="1"
         id="stop3539" />
    </linearGradient>
    <linearGradient
       id="linearGradient3752">
      <stop
         id="stop3754"
         offset="0"
         style="stop-color:white;stop-opacity:1" />
      <stop
         style="stop-color:#fce94f;stop-opacity:1;"
         offset="0.80000001"
         id="stop3756" />
      <stop
         id="stop3758"
         offset="1"
         style="stop-color:#edd400;stop-opacity:1" />
    </linearGradient>
    <linearGradient
       inkscape:collect="always"
       id="linearGradient3734">
      <stop
         style="stop-color:black;stop-opacity:1;"
         offset="0"
         id="stop3736" />
      <stop
         style="stop-color:black;stop-opacity:0;"
         offset="1"
         id="stop3738" />
    </linearGradient>
    <linearGradient
       id="linearGradient3712">
      <stop
         id="stop3714"
         offset="0"
         style="stop-color:white;stop-opacity:1;" />
      <stop
         id="stop3716"
         offset="1"
         style="stop-color:white;stop-opacity:0.50570345" />
    </linearGradient>
    <radialGradient
       inkscape:collect="always"
       xlink:href="#linearGradient3734"
       id="radialGradient12559"
       gradientUnits="userSpaceOnUse"
       cx="12.046875"
       cy="10.046875"
       fx="12.046875"
       fy="10.046875"
       r="9.546875" />
    <radialGradient
       inkscape:collect="always"
       xlink:href="#linearGradient3752"
       id="radialGradient12561"
       gradientUnits="userSpaceOnUse"
       gradientTransform="matrix(1.200799,0,0,1.200799,-1.921023,-1.565398)"
       cx="9.3747082"
       cy="7.8025141"
       fx="9.3747082"
       fy="7.8025141"
       r="10.049342" />
    <linearGradient
       inkscape:collect="always"
       xlink:href="#linearGradient8431"
       id="linearGradient12563"
       gradientUnits="userSpaceOnUse"
       x1="18.825819"
       y1="-140.43388"
       x2="19.23638"
       y2="-134.38734" />
    <radialGradient
       inkscape:collect="always"
       xlink:href="#linearGradient3712"
       id="radialGradient12565"
       gradientUnits="userSpaceOnUse"
       gradientTransform="matrix(1.242401,0,0,1.242401,-1.281477,-0.839422)"
       cx="5.3851099"
       cy="3.2659137"
       fx="5.3851099"
       fy="3.2659137"
       r="10.108456" />
    <radialGradient
       inkscape:collect="always"
       xlink:href="#linearGradient3535"
       id="radialGradient12567"
       gradientUnits="userSpaceOnUse"
       gradientTransform="matrix(0.7803704,0,0,0.4444972,-2.8676447,108.76695)"
       cx="25.350018"
       cy="33.075127"
       fx="25.350018"
       fy="33.075127"
       r="14.499996" />
    <radialGradient
       inkscape:collect="always"
       xlink:href="#linearGradient7776"
       id="radialGradient12569"
       gradientUnits="userSpaceOnUse"
       gradientTransform="matrix(1.6369211,0,0,1.625836,-18.114998,82.98933)"
       cx="28.221428"
       cy="-133.18883"
       fx="28.221428"
       fy="-133.18883"
       r="3.21875" />
    <linearGradient
       inkscape:collect="always"
       xlink:href="#linearGradient7810"
       id="linearGradient12571"
       gradientUnits="userSpaceOnUse"
       x1="28.621698"
       y1="-135.65616"
       x2="30.315804"
       y2="-127.34384" />
    <radialGradient
       inkscape:collect="always"
       xlink:href="#linearGradient7776"
       id="radialGradient12573"
       gradientUnits="userSpaceOnUse"
       gradientTransform="matrix(1.6369211,0,0,1.625836,-18.114998,82.98933)"
       cx="28.221428"
       cy="-133.18883"
       fx="28.221428"
       fy="-133.18883"
       r="3.21875" />
    <linearGradient
       inkscape:collect="always"
       xlink:href="#linearGradient7810"
       id="linearGradient12575"
       gradientUnits="userSpaceOnUse"
       x1="28.621698"
       y1="-135.65616"
       x2="30.315804"
       y2="-127.34384" />
    <linearGradient
       id="linearGradient7638"
       inkscape:collect="always">
      <stop
         id="stop7640"
         offset="0"
         style="stop-color:#729fcf;stop-opacity:1" />
      <stop
         id="stop7642"
         offset="1"
         style="stop-color:#729fcf;stop-opacity:0" />
    </linearGradient>
    <linearGradient
       inkscape:collect="always"
       id="linearGradient7620">
      <stop
         style="stop-color:#2e3436;stop-opacity:1;"
         offset="0"
         id="stop7622" />
      <stop
         style="stop-color:#2e3436;stop-opacity:0;"
         offset="1"
         id="stop7624" />
    </linearGradient>
    <linearGradient
       inkscape:collect="always"
       id="linearGradient7567">
      <stop
         style="stop-color:#ffffff;stop-opacity:1;"
         offset="0"
         id="stop7569" />
      <stop
         style="stop-color:#ffffff;stop-opacity:0;"
         offset="1"
         id="stop7571" />
    </linearGradient>
    <linearGradient
       id="linearGradient7549">
      <stop
         style="stop-color:#000000;stop-opacity:1;"
         offset="0"
         id="stop7551" />
      <stop
         style="stop-color:#888a85;stop-opacity:1"
         offset="1"
         id="stop7553" />
    </linearGradient>
    <linearGradient
       inkscape:collect="always"
       id="linearGradient7519">
      <stop
         style="stop-color:#2e3436;stop-opacity:1"
         offset="0"
         id="stop7521" />
      <stop
         style="stop-color:#2e3436;stop-opacity:0"
         offset="1"
         id="stop7523" />
    </linearGradient>
    <linearGradient
       inkscape:collect="always"
       xlink:href="#linearGradient7549"
       id="linearGradient5822"
       gradientUnits="userSpaceOnUse"
       gradientTransform="scale(0.6666667,0.6666667)"
       x1="22"
       y1="19"
       x2="-3.8114223"
       y2="17.493725" />
    <radialGradient
       inkscape:collect="always"
       xlink:href="#linearGradient7638"
       id="radialGradient5824"
       gradientUnits="userSpaceOnUse"
       gradientTransform="matrix(1.4271074,0,0,0.7135537,-7.225952,2.2588835)"
       cx="11.339117"
       cy="21.94875"
       fx="11.339117"
       fy="21.94875"
       r="8" />
    <linearGradient
       inkscape:collect="always"
       xlink:href="#linearGradient7567"
       id="linearGradient5826"
       gradientUnits="userSpaceOnUse"
       x1="12.3125"
       y1="17.102404"
       x2="12.3125"
       y2="23.001324" />
    <linearGradient
       inkscape:collect="always"
       xlink:href="#linearGradient7549"
       id="linearGradient5828"
       gradientUnits="userSpaceOnUse"
       gradientTransform="scale(0.6666667,0.6666667)"
       x1="40.875"
       y1="20.125"
       x2="19.25"
       y2="16" />
    <radialGradient
       inkscape:collect="always"
       xlink:href="#linearGradient7638"
       id="radialGradient5830"
       gradientUnits="userSpaceOnUse"
       gradientTransform="matrix(-1.4271074,0,0,0.7135537,33.225952,2.2588835)"
       cx="10.472023"
       cy="20.833914"
       fx="10.472023"
       fy="20.833914"
       r="8" />
    <linearGradient
       inkscape:collect="always"
       xlink:href="#linearGradient7567"
       id="linearGradient5832"
       gradientUnits="userSpaceOnUse"
       x1="15.936422"
       y1="17.340279"
       x2="15.936422"
       y2="23.019377" />
    <linearGradient
       inkscape:collect="always"
       xlink:href="#linearGradient7620"
       id="linearGradient5834"
       gradientUnits="userSpaceOnUse"
       gradientTransform="matrix(0.6666667,0,0,-0.6666667,3.703504e-2,15.289797)"
       x1="4.5496697"
       y1="15.21875"
       x2="4.5496697"
       y2="14.71875" />
    <linearGradient
       inkscape:collect="always"
       xlink:href="#linearGradient7519"
       id="linearGradient5836"
       gradientUnits="userSpaceOnUse"
       gradientTransform="matrix(0.6666667,0,0,-0.6666667,3.703504e-2,14.623127)"
       x1="43.78125"
       y1="14.6875"
       x2="44.3125"
       y2="13.375" />
  </defs>
  <sodipodi:namedview
     id="base"
     pagecolor="#ffffff"
     bordercolor="#666666"
     borderopacity="1.0"
     inkscape:pageopacity="0"
     inkscape:pageshadow="2"
     inkscape:zoom="1"
     inkscape:cx="-5.7388232"
     inkscape:cy="13.45454"
     inkscape:document-units="px"
     inkscape:current-layer="layer1"
     width="32px"
     height="32px"
     inkscape:showpageshadow="false"
     showgrid="false"
     gridempspacing="2"
     gridspacingx="0.5px"
     gridspacingy="0.5px"
     borderlayer="false"
     showborder="true"
     showguides="false"
     inkscape:guide-bbox="true"
     inkscape:window-width="1112"
     inkscape:window-height="940"
     inkscape:window-x="50"
     inkscape:window-y="45"
     inkscape:grid-points="true"
     inkscape:grid-bbox="true"
     inkscape:object-points="false"
     inkscape:object-paths="false">
    <sodipodi:guide
       orientation="vertical"
       position="16"
       id="guide8441" />
    <sodipodi:guide
       orientation="horizontal"
       position="175"
       id="guide8443" />
    <sodipodi:guide
       orientation="horizontal"
       position="167.00978"
       id="guide7776" />
    <sodipodi:guide
       orientation="vertical"
       position="71.020038"
       id="guide7778" />
    <inkscape:grid
       type="xygrid"
       id="grid5778" />
  </sodipodi:namedview>
  <metadata
     id="metadata7">
    <rdf:RDF>
      <cc:Work
         rdf:about="">
        <dc:format>image/svg+xml</dc:format>
        <dc:type
           rdf:resource="http://purl.org/dc/dcmitype/StillImage" />
        <dc:title>Emotes</dc:title>
        <dc:creator>
          <cc:Agent>
            <dc:title>Lapo Calamandrei</dc:title>
          </cc:Agent>
        </dc:creator>
        <cc:license
           rdf:resource="http://creativecommons.org/licenses/GPL/2.0/" />
      </cc:Work>
      <cc:License
         rdf:about="http://creativecommons.org/licenses/GPL/2.0/">
        <cc:permits
           rdf:resource="http://web.resource.org/cc/Reproduction" />
        <cc:permits
           rdf:resource="http://web.resource.org/cc/Distribution" />
        <cc:requires
           rdf:resource="http://web.resource.org/cc/Notice" />
        <cc:permits
           rdf:resource="http://web.resource.org/cc/DerivativeWorks" />
        <cc:requires
           rdf:resource="http://web.resource.org/cc/ShareAlike" />
        <cc:requires
           rdf:resource="http://web.resource.org/cc/SourceCode" />
      </cc:License>
    </rdf:RDF>
  </metadata>
  <g
     inkscape:label="Livello 1"
     inkscape:groupmode="layer"
     id="layer1"
     style="display:inline">
    <g
       id="g9787"
       transform="translate(0,-100)">
      <g
         transform="translate(0,100)"
         id="g9378"
         style="display:inline">
        <path
           sodipodi:type="arc"
           style="opacity:0.4;fill:url(#radialGradient12559);fill-opacity:1;stroke:none;stroke-width:0.46570092;stroke-linecap:round;stroke-linejoin:miter;stroke-miterlimit:4;stroke-dasharray:none;stroke-dashoffset:0;stroke-opacity:1;display:inline"
           id="path9380"
           sodipodi:cx="12.046875"
           sodipodi:cy="10.046875"
           sodipodi:rx="9.546875"
           sodipodi:ry="9.546875"
           d="M 21.59375 10.046875 A 9.546875 9.546875 0 1 1  2.5,10.046875 A 9.546875 9.546875 0 1 1  21.59375 10.046875 z"
           transform="matrix(1.6061103,0,0,0.8030552,-3.3486088,15.598474)"
           inkscape:export-filename="/home/lapo/Desktop/something-along-the-lines.png"
           inkscape:export-xdpi="90"
           inkscape:export-ydpi="90" />
        <path
           sodipodi:type="arc"
           style="fill:url(#radialGradient12561);fill-opacity:1;stroke:#c4a000;stroke-width:0.70716023;stroke-linecap:round;stroke-linejoin:miter;stroke-miterlimit:4;stroke-dasharray:none;stroke-dashoffset:0;stroke-opacity:1;display:inline"
           id="path9382"
           sodipodi:cx="12.046875"
           sodipodi:cy="10.046875"
           sodipodi:rx="9.546875"
           sodipodi:ry="9.546875"
           d="M 21.59375 10.046875 A 9.546875 9.546875 0 1 1  2.5,10.046875 A 9.546875 9.546875 0 1 1  21.59375 10.046875 z"
           transform="matrix(1.4141063,0,0,1.4141063,-1.0358578,0.7929467)"
           inkscape:export-filename="/home/lapo/Desktop/something-along-the-lines.png"
           inkscape:export-xdpi="90"
           inkscape:export-ydpi="90" />
        <path
           sodipodi:type="arc"
           style="fill:url(#linearGradient12563);fill-opacity:1;fill-rule:evenodd;stroke:none;stroke-width:1;stroke-linecap:round;stroke-linejoin:miter;stroke-miterlimit:4;stroke-dasharray:none;stroke-dashoffset:0.69999992;stroke-opacity:1;display:inline"
           id="path9384"
           sodipodi:cx="19.5625"
           sodipodi:cy="-135.96875"
           sodipodi:rx="6.125"
           sodipodi:ry="5.96875"
           d="M 25.6875 -135.96875 A 6.125 5.96875 0 1 1  13.4375,-135.96875 A 6.125 5.96875 0 1 1  25.6875 -135.96875 z"
           transform="matrix(1.4718871,-0.394391,0.3035365,1.1328139,27.162035,172.2491)"
           inkscape:transform-center-y="-7.3651901"
           inkscape:transform-center-x="1.9734894" />
        <path
           sodipodi:type="arc"
           style="fill:none;fill-opacity:1;stroke:url(#radialGradient12565);stroke-width:0.76374972;stroke-linecap:round;stroke-linejoin:miter;stroke-miterlimit:4;stroke-dasharray:none;stroke-dashoffset:0;stroke-opacity:1;display:inline"
           id="path9386"
           sodipodi:cx="12.046875"
           sodipodi:cy="10.046875"
           sodipodi:rx="9.546875"
           sodipodi:ry="9.546875"
           d="M 21.59375 10.046875 A 9.546875 9.546875 0 1 1  2.5,10.046875 A 9.546875 9.546875 0 1 1  21.59375 10.046875 z"
           transform="matrix(1.3093302,0,0,1.309329,0.2266511,1.8453355)"
           inkscape:export-filename="/home/lapo/Desktop/something-along-the-lines.png"
           inkscape:export-xdpi="90"
           inkscape:export-ydpi="90" />
      </g>
      <path
         inkscape:export-ydpi="90"
         inkscape:export-xdpi="90"
         inkscape:export-filename="/home/lapo/Desktop/something-along-the-lines.png"
         sodipodi:nodetypes="czc"
         id="path9406"
         d="M 7.2499999,118.50001 C 7.2499999,120.03116 7.923082,123.75 15.999993,123.75 C 24.07692,123.75 24.749984,120.03116 24.749984,118.50001"
         style="fill:none;fill-rule:evenodd;stroke:url(#radialGradient12567);stroke-width:1.50000012;stroke-linecap:round;stroke-linejoin:miter;stroke-miterlimit:4;stroke-dasharray:none;stroke-opacity:1;display:inline" />
      <path
         inkscape:export-ydpi="90"
         inkscape:export-xdpi="90"
         inkscape:export-filename="/home/lapo/Desktop/something-along-the-lines.png"
         sodipodi:nodetypes="czc"
         id="path9408"
         d="M 7.4996875,118.33334 C 7.4996875,119.72223 8.1535509,122.5 15.999845,122.5 C 23.846154,122.5 24.500001,119.72223 24.500001,118.33334"
         style="fill:none;fill-rule:evenodd;stroke:#c4a000;stroke-width:0.99999988px;stroke-linecap:round;stroke-linejoin:miter;stroke-opacity:1;display:inline" />
      <g
         transform="translate(0,50)"
         id="g9617">
        <g
           style="display:inline"
           id="g9547"
           transform="matrix(0.8999994,0,0,1.1249979,1.4000116,48.500026)">
          <path
             transform="matrix(0.5177995,0,0,0.6274509,3.7410955,94.509787)"
             d="M 32.6875 -131.5 A 3.21875 4.25 0 1 1  26.25,-131.5 A 3.21875 4.25 0 1 1  32.6875 -131.5 z"
             sodipodi:ry="4.25"
             sodipodi:rx="3.21875"
             sodipodi:cy="-131.5"
             sodipodi:cx="29.46875"
             id="path9549"
             style="fill:url(#radialGradient12569);fill-opacity:1;fill-rule:evenodd;stroke:none;stroke-width:1;stroke-linecap:round;stroke-linejoin:miter;stroke-miterlimit:4;stroke-dasharray:none;stroke-dashoffset:0.69999992;stroke-opacity:1;display:inline"
             sodipodi:type="arc" />
          <path
             transform="matrix(0.1605551,4.0629491e-2,-3.2722214e-2,0.2927245,9.5134365,48.513673)"
             d="M 32.6875 -131.5 A 3.21875 4.25 0 1 1  26.25,-131.5 A 3.21875 4.25 0 1 1  32.6875 -131.5 z"
             sodipodi:ry="4.25"
             sodipodi:rx="3.21875"
             sodipodi:cy="-131.5"
             sodipodi:cx="29.46875"
             id="path9551"
             style="opacity:0.5;fill:url(#linearGradient12571);fill-opacity:1;fill-rule:evenodd;stroke:none;stroke-width:1;stroke-linecap:round;stroke-linejoin:miter;stroke-miterlimit:4;stroke-dasharray:none;stroke-dashoffset:0.69999992;stroke-opacity:1;display:inline"
             sodipodi:type="arc" />
        </g>
        <g
           style="display:inline"
           id="g9553"
           transform="matrix(0.8999997,0,0,1.1249979,-3.5999931,48.500026)">
          <path
             transform="matrix(0.5177995,0,0,0.6274509,3.7410955,94.509787)"
             d="M 32.6875 -131.5 A 3.21875 4.25 0 1 1  26.25,-131.5 A 3.21875 4.25 0 1 1  32.6875 -131.5 z"
             sodipodi:ry="4.25"
             sodipodi:rx="3.21875"
             sodipodi:cy="-131.5"
             sodipodi:cx="29.46875"
             id="path9555"
             style="fill:url(#radialGradient12573);fill-opacity:1;fill-rule:evenodd;stroke:none;stroke-width:1;stroke-linecap:round;stroke-linejoin:miter;stroke-miterlimit:4;stroke-dasharray:none;stroke-dashoffset:0.69999992;stroke-opacity:1;display:inline"
             sodipodi:type="arc" />
          <path
             transform="matrix(0.1605551,4.0629491e-2,-3.2722214e-2,0.2927245,9.5134365,48.513673)"
             d="M 32.6875 -131.5 A 3.21875 4.25 0 1 1  26.25,-131.5 A 3.21875 4.25 0 1 1  32.6875 -131.5 z"
             sodipodi:ry="4.25"
             sodipodi:rx="3.21875"
             sodipodi:cy="-131.5"
             sodipodi:cx="29.46875"
             id="path9557"
             style="opacity:0.5;fill:url(#linearGradient12575);fill-opacity:1;fill-rule:evenodd;stroke:none;stroke-width:1;stroke-linecap:round;stroke-linejoin:miter;stroke-miterlimit:4;stroke-dasharray:none;stroke-dashoffset:0.69999992;stroke-opacity:1;display:inline"
             sodipodi:type="arc" />
        </g>
      </g>
    </g>
    <path
       style="fill:none;fill-rule:evenodd;stroke:#2e3436;stroke-width:3.00000024;stroke-linecap:round;stroke-linejoin:round;stroke-miterlimit:4;stroke-dasharray:none;stroke-opacity:1;display:inline"
       d="M 28.33806,5.2897967 C 28.988888,5.2897967 29.964338,5.5397967 29.639083,6.2897967 C 29.313827,7.0397967 27.037037,7.2897967 27.037037,7.2897967"
       id="path5780"
       sodipodi:nodetypes="csc" />
    <path
       style="fill:none;fill-rule:evenodd;stroke:#d3d7cf;stroke-width:1px;stroke-linecap:round;stroke-linejoin:round;stroke-opacity:1;display:inline"
       d="M 28.370371,4.2897967 C 29.037362,4.2897967 30.037037,4.5768267 29.703704,5.4379367 C 29.370371,6.2990567 27.037037,6.5860867 27.037037,6.5860867"
       id="path5782"
       sodipodi:nodetypes="csc" />
    <path
       style="fill:none;fill-rule:evenodd;stroke:#2e3436;stroke-width:3.00000024;stroke-linecap:round;stroke-linejoin:round;stroke-miterlimit:4;stroke-dasharray:none;stroke-opacity:1;display:inline"
       d="M 3.7699279,4.2897967 C 3.1029358,4.2897967 2.1032611,4.5397967 2.4365945,5.2897967 C 2.7699278,6.0397967 5.1032613,6.2897967 5.1032613,6.2897967"
       id="path5784"
       sodipodi:nodetypes="csc" />
    <path
       style="fill:none;fill-rule:evenodd;stroke:#d3d7cf;stroke-width:1px;stroke-linecap:round;stroke-linejoin:round;stroke-opacity:1;display:inline"
       d="M 3.7699279,4.2897967 C 3.1029358,4.2897967 2.1032611,4.5397967 2.4365945,5.2897967 C 2.7699278,6.0397967 5.1032613,6.2897967 5.1032613,6.2897967"
       id="path5786"
       sodipodi:nodetypes="csc" />
    <path
       style="opacity:0.15;fill:#000000;fill-opacity:1;stroke:#000000;stroke-width:1;stroke-linecap:square;stroke-linejoin:round;stroke-miterlimit:4;stroke-dasharray:none;stroke-dashoffset:0.7;stroke-opacity:1;display:inline"
       d="M 5.0162019,3.2897967 C 4.2897845,3.2897967 3.0370351,4.6231367 3.0370351,6.268967 L 3.0370351,6.956467 C 3.0370351,9.289797 5.5643686,8.289797 8.7037021,8.289797 C 11.843037,8.289797 14.37037,8.316887 14.37037,7.102297 L 14.37037,5.331467 C 14.720703,5.332007 15.014889,5.060827 15.037037,4.7064671 C 15.053326,4.6983971 15.04199,4.7002771 15.099537,4.6856371 C 15.295873,4.6356571 15.679894,4.6231371 16.037037,4.6231371 C 16.394178,4.6231371 16.7782,4.6356571 16.974537,4.6856371 C 17.032083,4.7002771 17.020747,4.6983971 17.037037,4.7064671 C 17.059184,5.060827 17.35337,5.332007 17.703704,5.331467 L 17.703704,7.102297 C 17.703704,8.316887 20.231036,8.289797 23.370369,8.289797 C 26.509703,8.289797 29.037037,9.289797 29.037037,6.956467 L 29.037037,7.268967 C 29.037037,5.6231367 27.784287,3.2897967 27.057871,3.2897967 C 26.037037,3.2897967 24.787453,3.9564671 22.703704,3.9564671 C 20.852435,3.9564671 19.682869,3.9564671 19.682869,3.9564671 C 19.299193,3.9564671 18.764317,4.1125971 18.349537,4.3731371 C 18.295747,4.1295171 18.160743,3.9024867 17.995369,3.7481367 C 17.774872,3.5423367 17.537082,3.4523167 17.307869,3.3939667 C 16.849444,3.2772767 16.394178,3.2897967 16.037037,3.2897967 C 15.679894,3.2897967 15.224629,3.2772767 14.766203,3.3939667 C 14.536991,3.4523167 14.299202,3.5423367 14.078703,3.7481367 C 13.913329,3.9024867 13.778326,4.1295171 13.724537,4.3731371 C 13.309757,4.1125971 12.77488,3.9564671 12.391203,3.9564671 C 12.391203,3.9564671 11.221637,3.9564671 9.3703688,3.9564671 C 7.2866187,3.9564671 6.0370353,3.2897967 5.0162019,3.2897967 z"
       id="path5788"
       sodipodi:nodetypes="cccsccsssssccsccssccsssssccsc" />
    <g
       style="display:inline"
       id="g5790"
       transform="matrix(1.037037,0,0,-1.0019268,-0.5555564,18.141767)">
      <path
         sodipodi:nodetypes="cccsccssc"
         id="path5792"
         d="M 12.354167,10.333334 C 13.081632,10.333334 14.333334,10.918369 14.333334,11.645834 L 14.333334,13.479167 C 14.333334,14.69375 11.806001,15.666667 8.6666671,15.666667 C 5.5273336,15.666667 3.0000001,14.666667 3.0000001,12.333334 L 3.0000001,11.645834 C 3.0000001,10 4.2527495,9.6666671 4.9791669,9.6666671 C 6.0000003,9.6666671 7.2495837,10.333334 9.3333338,10.333334 C 11.184601,10.333334 12.354167,10.333334 12.354167,10.333334 z"
         style="fill:url(#linearGradient5822);fill-opacity:1;stroke:#000000;stroke-width:0.98103583;stroke-linecap:square;stroke-linejoin:round;stroke-miterlimit:4;stroke-dasharray:none;stroke-dashoffset:0.7;stroke-opacity:1;display:inline" />
      <path
         transform="matrix(0.6666667,0,0,0.6666667,0,-0.6666667)"
         d="M 7.46875,16.25 C 7.0374529,16.25 6.4276651,16.350247 6,16.65625 C 5.5723349,16.962253 5.25,17.422672 5.25,18.46875 L 5.25,19.5 C 5.25,20.982052 5.9739492,21.931841 7.34375,22.65625 C 8.7135508,23.380659 10.7243,23.75 13,23.75 C 15.277834,23.75 17.332568,23.390452 18.75,22.84375 C 19.458716,22.570399 20.01451,22.239136 20.34375,21.9375 C 20.67299,21.635864 20.75,21.416842 20.75,21.21875 L 20.75,18.46875 C 20.75,18.348802 20.554918,18.007954 20.0625,17.71875 C 19.570082,17.429546 18.877903,17.25 18.53125,17.25 C 18.53125,17.25 16.776901,17.25 14,17.25 C 10.716084,17.25 8.6768918,16.25 7.46875,16.25 z"
         id="path5794"
         style="opacity:0.25;fill:url(#radialGradient5824);fill-opacity:1;stroke:none;stroke-width:1;stroke-linecap:square;stroke-linejoin:round;stroke-miterlimit:4;stroke-dasharray:none;stroke-dashoffset:0.7;stroke-opacity:1;display:inline"
         inkscape:original="M 7.46875 15.5 C 6.379124 15.5 4.5 16 4.5 18.46875 L 4.5 19.5 C 4.5 23 8.291 24.5 13 24.5 C 17.709 24.499999 21.5 23.040624 21.5 21.21875 L 21.5 18.46875 C 21.5 17.377553 19.622447 16.5 18.53125 16.5 C 18.53125 16.5 16.776901 16.5 14 16.5 C 10.874375 16.5 9 15.5 7.46875 15.5 z "
         inkscape:radius="-0.74213904"
         sodipodi:type="inkscape:offset" />
      <path
         transform="scale(0.6666667,0.6666667)"
         d="M 7.46875,16 C 7.1516125,16 6.6858348,16.103562 6.4375,16.28125 C 6.1891652,16.458938 6,16.612036 6,17.46875 L 6,18.5 C 6,19.712585 6.4852179,20.364182 7.6875,21 C 8.8897821,21.635818 10.803547,22 13,22 C 15.200734,22 17.170936,21.656816 18.46875,21.15625 C 19.117657,20.905967 19.61482,20.615986 19.84375,20.40625 C 20.07268,20.196514 20,20.158005 20,20.21875 L 20,17.46875 C 20,17.776866 20.034656,17.565993 19.65625,17.34375 C 19.277844,17.121507 18.677829,17 18.53125,17 C 18.53125,17 16.776901,17 14,17 C 10.556895,17 8.3519513,16 7.46875,16 z"
         id="path5796"
         style="opacity:0.15;fill:none;fill-opacity:1;stroke:url(#linearGradient5826);stroke-width:1.47155392;stroke-linecap:square;stroke-linejoin:round;stroke-miterlimit:4;stroke-dasharray:none;stroke-dashoffset:0.7;stroke-opacity:1;display:inline"
         inkscape:original="M 7.46875 14.5 C 6.379124 14.5 4.5 15 4.5 17.46875 L 4.5 18.5 C 4.5 22 8.291 23.5 13 23.5 C 17.709 23.499999 21.5 22.040624 21.5 20.21875 L 21.5 17.46875 C 21.5 16.377553 19.622447 15.5 18.53125 15.5 C 18.53125 15.5 16.776901 15.5 14 15.5 C 10.874375 15.5 9 14.5 7.46875 14.5 z "
         inkscape:radius="-1.4884868"
         sodipodi:type="inkscape:offset" />
      <path
         sodipodi:nodetypes="cccsccssc"
         id="path5798"
         d="M 19.645834,10.333334 C 18.91837,10.333334 17.666668,10.918369 17.666668,11.645834 L 17.666668,13.479167 C 17.666668,14.69375 20.194001,15.666667 23.333334,15.666667 C 26.472668,15.666667 29.000001,14.666667 29.000001,12.333334 L 29.000001,11.645834 C 29.000001,10 27.747252,9.6666671 27.020835,9.6666671 C 26.000001,9.6666671 24.750418,10.333334 22.666668,10.333334 C 20.8154,10.333334 19.645834,10.333334 19.645834,10.333334 z"
         style="fill:url(#linearGradient5828);fill-opacity:1;stroke:#000000;stroke-width:0.98103583;stroke-linecap:square;stroke-linejoin:round;stroke-miterlimit:4;stroke-dasharray:none;stroke-dashoffset:0.7;stroke-opacity:1;display:inline" />
      <path
         transform="matrix(-0.6666667,0,0,0.6666667,32.000002,-0.6666667)"
         d="M 7.46875,16.25 C 7.0377649,16.25 6.4271749,16.350598 6,16.65625 C 5.5728251,16.961902 5.25,17.423189 5.25,18.46875 L 5.25,19.5 C 5.25,20.981316 5.9744071,21.932084 7.34375,22.65625 C 8.7130929,23.380416 10.724517,23.75 13,23.75 C 15.277623,23.75 17.332895,23.390326 18.75,22.84375 C 19.458553,22.570462 20.014784,22.238885 20.34375,21.9375 C 20.672716,21.636115 20.75,21.416134 20.75,21.21875 L 20.75,18.46875 C 20.75,18.349972 20.554607,18.007771 20.0625,17.71875 C 19.570393,17.429729 18.877356,17.25 18.53125,17.25 C 18.53125,17.25 16.776901,17.25 14,17.25 C 10.715649,17.25 8.6760036,16.25 7.46875,16.25 z"
         id="path5800"
         style="opacity:0.25;fill:url(#radialGradient5830);fill-opacity:1;stroke:none;stroke-width:1;stroke-linecap:square;stroke-linejoin:round;stroke-miterlimit:4;stroke-dasharray:none;stroke-dashoffset:0.7;stroke-opacity:1;display:inline"
         inkscape:original="M 7.46875 15.5 C 6.379124 15.5 4.5 16 4.5 18.46875 L 4.5 19.5 C 4.5 23 8.291 24.5 13 24.5 C 17.709 24.499999 21.5 23.040624 21.5 21.21875 L 21.5 18.46875 C 21.5 17.377553 19.622447 16.5 18.53125 16.5 C 18.53125 16.5 16.776901 16.5 14 16.5 C 10.874375 16.5 9 15.5 7.46875 15.5 z "
         inkscape:radius="-0.74417919"
         sodipodi:type="inkscape:offset" />
      <path
         transform="matrix(-0.6666667,0,0,0.6666667,32.000002,0)"
         d="M 7.46875,15.96875 C 7.1471181,15.96875 6.6928949,16.06726 6.4375,16.25 C 6.1821051,16.43274 5.96875,16.604581 5.96875,17.46875 L 5.96875,18.5 C 5.96875,19.723194 6.4473729,20.391945 7.65625,21.03125 C 8.8651271,21.670555 10.800427,22.03125 13,22.03125 C 15.203769,22.03125 17.197476,21.689882 18.5,21.1875 C 19.151262,20.936309 19.610871,20.650854 19.84375,20.4375 C 20.076629,20.224146 20.03125,20.168195 20.03125,20.21875 L 20.03125,17.46875 C 20.03125,17.760014 20.070395,17.568629 19.6875,17.34375 C 19.304605,17.118871 18.685706,16.96875 18.53125,16.96875 C 18.53125,16.96875 16.776901,16.96875 14,16.96875 C 10.563162,16.96875 8.364744,15.96875 7.46875,15.96875 z"
         id="path5802"
         style="opacity:0.15;fill:none;fill-opacity:1;stroke:url(#linearGradient5832);stroke-width:1.47155392;stroke-linecap:square;stroke-linejoin:round;stroke-miterlimit:4;stroke-dasharray:none;stroke-dashoffset:0.7;stroke-opacity:1;display:inline"
         inkscape:original="M 7.46875 14.5 C 6.379124 14.5 4.5 15 4.5 17.46875 L 4.5 18.5 C 4.5 22 8.291 23.5 13 23.5 C 17.709 23.499999 21.5 22.040624 21.5 20.21875 L 21.5 17.46875 C 21.5 16.377553 19.622447 15.5 18.53125 15.5 C 18.53125 15.5 16.776901 15.5 14 15.5 C 10.874375 15.5 9 14.5 7.46875 14.5 z "
         inkscape:radius="-1.4591036"
         sodipodi:type="inkscape:offset" />
    </g>
    <path
       style="fill:none;fill-opacity:1;fill-rule:evenodd;stroke:url(#linearGradient5834);stroke-width:3.00000024;stroke-linecap:round;stroke-linejoin:round;stroke-miterlimit:4;stroke-dasharray:none;stroke-opacity:1;display:inline"
       d="M 3.7699279,4.2897967 C 3.1029358,4.2897967 2.1032611,4.6231267 2.4365945,5.6231267"
       id="path5804"
       sodipodi:nodetypes="cs" />
    <path
       style="fill:none;fill-rule:evenodd;stroke:#d3d7cf;stroke-width:1px;stroke-linecap:round;stroke-linejoin:round;stroke-opacity:1;display:inline"
       d="M 3.7699279,4.2897967 C 3.1029358,4.2897967 2.1032611,4.6231267 2.4365945,5.6231267"
       id="path5806"
       sodipodi:nodetypes="cs" />
    <path
       style="fill:none;fill-rule:evenodd;stroke:#2e3436;stroke-width:3.00000024;stroke-linecap:round;stroke-linejoin:miter;stroke-miterlimit:4;stroke-dasharray:none;stroke-opacity:1;display:inline"
       d="M 14.37037,4.1231371 C 14.37037,3.4564667 15.322751,3.4564667 16.037037,3.4564667 C 16.751322,3.4564667 17.703704,3.4564667 17.703704,4.1231371"
       id="path5808"
       sodipodi:nodetypes="csc" />
    <path
       style="fill:none;fill-rule:evenodd;stroke:#d3d7cf;stroke-width:1;stroke-linecap:round;stroke-linejoin:miter;stroke-miterlimit:4;stroke-dasharray:none;stroke-opacity:1;display:inline"
       d="M 14.37037,4.1231371 C 14.37037,3.4564667 15.322751,3.4564667 16.037037,3.4564667 C 16.751322,3.4564667 17.703704,3.4564667 17.703704,4.1231371"
       id="path5810"
       sodipodi:nodetypes="csc" />
    <path
       style="fill:none;fill-opacity:1;fill-rule:evenodd;stroke:url(#linearGradient5836);stroke-width:3.00000024;stroke-linecap:round;stroke-linejoin:round;stroke-miterlimit:4;stroke-dasharray:none;stroke-opacity:1;display:inline"
       d="M 28.370371,4.2897967 C 29.037362,4.2897967 30.037037,4.6231267 29.703704,5.6231267"
       id="path5812"
       sodipodi:nodetypes="cs" />
    <path
       style="fill:none;fill-rule:evenodd;stroke:#d3d7cf;stroke-width:1px;stroke-linecap:round;stroke-linejoin:round;stroke-opacity:1;display:inline"
       d="M 28.370371,4.2897967 C 29.037362,4.2897967 30.037037,4.6231267 29.703704,5.6231267"
       id="path5814"
       sodipodi:nodetypes="cs" />
    <path
       sodipodi:type="arc"
       style="fill:#ffffff;fill-opacity:1;stroke:none;stroke-width:1;stroke-linecap:round;stroke-linejoin:round;stroke-miterlimit:4;stroke-dasharray:none;stroke-dashoffset:0.7;stroke-opacity:1;display:inline"
       id="path5816"
       sodipodi:cx="22"
       sodipodi:cy="16.5"
       sodipodi:rx="0.5"
       sodipodi:ry="0.5"
       d="M 22.5,16.5 A 0.5,0.5 0 1 1 21.5,16.5 A 0.5,0.5 0 1 1 22.5,16.5 z"
       transform="translate(-7.129632,-13.210199)" />
    <path
       sodipodi:type="arc"
       style="fill:#ffffff;fill-opacity:1;stroke:none;stroke-width:1;stroke-linecap:round;stroke-linejoin:round;stroke-miterlimit:4;stroke-dasharray:none;stroke-dashoffset:0.7;stroke-opacity:1;display:inline"
       id="path5818"
       sodipodi:cx="22"
       sodipodi:cy="16.5"
       sodipodi:rx="0.5"
       sodipodi:ry="0.5"
       d="M 22.5,16.5 A 0.5,0.5 0 1 1 21.5,16.5 A 0.5,0.5 0 1 1 22.5,16.5 z"
       transform="matrix(1,0,0,-1,-19.462966,21.623122)" />
    <path
       sodipodi:type="arc"
       style="fill:#ffffff;fill-opacity:1;stroke:none;stroke-width:1;stroke-linecap:round;stroke-linejoin:round;stroke-miterlimit:4;stroke-dasharray:none;stroke-dashoffset:0.7;stroke-opacity:1;display:inline"
       id="path5820"
       sodipodi:cx="22"
       sodipodi:cy="16.5"
       sodipodi:rx="0.5"
       sodipodi:ry="0.5"
       d="M 22.5,16.5 A 0.5,0.5 0 1 1 21.5,16.5 A 0.5,0.5 0 1 1 22.5,16.5 z"
       transform="matrix(1,0,0,-1,6.5370353,20.956452)" />
  </g>
</svg>
