/* XPM */
static char *face_worried_xpm[] = {
/* columns rows colors chars-per-pixel */
"32 32 237 2",
"   c None",
".  c #c3c2bc",
"X  c #a9a9aa",
"o  c #777672",
"O  c #565654",
"+  c #454544",
"@  c #3b3a34",
"#  c #666234",
"$  c #aa9e40",
"%  c #e8d254",
"&  c #e8ce3d",
"*  c #decc44",
"=  c #ae9e44",
"-  c #7a723c",
";  c #5a563c",
":  c #6a6a6c",
">  c #9e9e9c",
",  c Gray69",
"<  c #cececc",
"1  c #d5d5cf",
"2  c #a2a28c",
"3  c #727274",
"4  c #4c4c4a",
"5  c #343431",
"6  c #1c1c0c",
"7  c #221e04",
"8  c #36321c",
"9  c #5a4e0c",
"0  c #8e822c",
"q  c #887a34",
"w  c #7a6e24",
"e  c #4c4620",
"r  c #6a6654",
"t  c #524e44",
"y  c #242210",
"u  c #17160e",
"i  c #161208",
"p  c #1d1d1c",
"a  c #807e74",
"s  c Gray14",
"d  c #2b2b2c",
"f  c #5d5d5c",
"g  c #8e7e2c",
"h  c #8a8a8c",
"j  c #a29e7c",
"k  c #56522c",
"l  c #ecd62c",
"z  c #f9db37",
"x  c #665e2c",
"c  c #f3da56",
"v  c #a98a1a",
"b  c #d5be24",
"n  c #f9de25",
"m  c #d8c234",
"M  c #a28e3c",
"N  c #c6ae54",
"B  c #f4de64",
"V  c #c0b248",
"C  c #3d3611",
"Z  c #6e6a4c",
"A  c #fae22a",
"S  c #514d34",
"D  c #caaa4c",
"F  c #d2aa2c",
"G  c #eade8c",
"H  c #f5d638",
"J  c #f6da26",
"K  c #ecd640",
"L  c #dac64c",
"P  c #ead674",
"I  c #f5e367",
"U  c #f5e247",
"Y  c #fae23e",
"T  c #f1da3a",
"R  c #dec644",
"E  c #d6be44",
"W  c #ddbe24",
"Q  c #d5b81e",
"!  c #d2b234",
"~  c #beb68c",
"^  c #dedab4",
"/  c #fbeb72",
"(  c #fae654",
")  c #f5ea9f",
"_  c #f6e384",
"`  c #e4c32c",
"'  c #dec228",
"]  c #ddb92d",
"[  c #cbae37",
"{  c #c2a244",
"}  c #d0ccb2",
"|  c #feee8c",
" . c #fef298",
".. c #c6ba64",
"X. c #665e14",
"o. c #665a0c",
"O. c #c6b21f",
"+. c #524e2c",
"@. c #a69e60",
"#. c #d2b229",
"$. c #cba72d",
"%. c #be9e2c",
"&. c #b8ac6c",
"*. c #faee9c",
"=. c #8e864c",
"-. c #0d0d04",
";. c #8a7e14",
":. c #beaa24",
">. c #f6e69c",
",. c #caa22c",
"<. c #bc9a21",
"1. c #b69228",
"2. c #e2da9c",
"3. c #f5d239",
"4. c #fbee81",
"5. c #2b260c",
"6. c #a7962f",
"7. c #eeda2c",
"8. c #f0e280",
"9. c #d2ae24",
"0. c #c39e32",
"q. c #f5d624",
"w. c #f9ec93",
"e. c #eadc5c",
"r. c #cbba37",
"t. c #e6d658",
"y. c #dbca54",
"u. c #dace84",
"i. c #eed254",
"p. c #eaca26",
"a. c #e3c223",
"s. c #cba622",
"d. c #b18e25",
"f. c #b09e68",
"g. c #f0ce3a",
"h. c #fae634",
"j. c #faea54",
"k. c #cec264",
"l. c #c5b338",
"z. c #e4c622",
"x. c #c6a62c",
"c. c #ba961f",
"v. c #b28a1c",
"b. c #aa924c",
"n. c #f2ce2c",
"m. c #fdf5b4",
"M. c #f2eab0",
"N. c #d6ca64",
"B. c #a89014",
"V. c #a18e1c",
"C. c #c6aa1c",
"Z. c #dcb823",
"A. c #a68638",
"S. c #eeca38",
"D. c #f2d226",
"F. c #fefacc",
"G. c #e2d67c",
"H. c #867614",
"J. c #5c5214",
"K. c #b29a14",
"L. c #e2be21",
"P. c #d7b229",
"I. c #b4961c",
"U. c #a17e24",
"Y. c #dece64",
"T. c #fdf6c9",
"R. c #7e720c",
"E. c #4e460c",
"W. c #928218",
"Q. c #cdaa21",
"!. c #ae8624",
"~. c #9a7a34",
"^. c #eac644",
"/. c #eac530",
"(. c #eece26",
"). c #eed224",
"_. c #eee6b4",
"`. c #706210",
"'. c #9e8a14",
"]. c #9c7620",
"[. c #e2c654",
"{. c #beb270",
"}. c #d2aa24",
"|. c #c4a121",
" X c #bc9220",
".X c #a07a20",
"XX c #9a8240",
"oX c #deca74",
"OX c #e5be2f",
"+X c #a29224",
"@X c #927e14",
"#X c #c0a618",
"$X c #a18218",
"%X c #9d8c62",
"&X c #e2ba2c",
"*X c #c59924",
"=X c #96731e",
"-X c #aea68c",
";X c #d6ae2c",
":X c #eac621",
">X c #f5de57",
",X c #eed239",
"<X c #ccaf1c",
"1X c #a88220",
"2X c #a9861d",
"3X c #8b6619",
"4X c #ceba74",
"5X c #dec61c",
"6X c #9a8721",
"7X c #4a3e0f",
"8X c #443a0c",
"9X c #906e14",
"0X c #9a7e14",
"qX c #907315",
"wX c #987a18",
"eX c #966e18",
"rX c #d6d2b4",
"tX c #c2ae3c",
"yX c #362e0c",
"uX c #887214",
"iX c #7d6314",
"pX c #876b14",
"aX c #8f6a1d",
"sX c #b2921c",
"dX c #765d14",
"fX c #caa224",
"gX c #90743c",
"hX c #9a8214",
"jX c #846314",
"kX c #7b5d14",
"lX c #babaa4",
"zX c #8a6214",
"xX c #c2ae74",
"cX c #b68a24",
"vX c #a67e1e",
"bX c #b6a264",
"nX c #b6ae8c",
/* pixels */
"          . X o O + @ @ # $ % & & * = - ; O O O : > , . < 1 1   ",
"      2 3 4 3 X o 5 6 6 7 8 9 0 q w e r t y u i p 5 + : a , 1   ",
"      + 5 s : X 3 5 p p p s s d d d @ 3 f d p p p p s d s .     ",
"      f O s 5 4 @ s p p s s d g g d s 5 d s s s s d d h 4       ",
"      f j e y s p p s s s s k l z ; s p p s s s s d x 2 f       ",
"      a c v e i p p s s d 5 b n n m @ s s p s s d d M N a       ",
"      B z z V x C s 5 + Z $ n n A n V S d s d 5 S q D F N       ",
"    G H z z J K L L P I U Y A n n n J T l K & R E W Q ! D ~     ",
"  ^ z z z n z n n U / / ( A A n n n n n I ) _ % ` ' ] [ F { }   ",
"  P H H z z n J Y / |  ...X.o.O.A A ' - +.@.) _ & ` Q #.$.%.&.  ",
"  H H H H J n J U | *. .=.-.-.;.A A :.i -.+.) >.& ` W ! ,.<.1.1 ",
"2.3.H H z z J n A 4. . .@.5.5.6.7.l O.C i - >.8.& ` ] 9.D 0.1.~ ",
"P 3.H q.q.J J J n ( / w.e.r.r.t.e.y.b :.N u._ i.p.a.W #.s.%.d.f.",
"i.g.3.H q.z J n n n A h.h.j.4.4.G k.l.O.b O.b p.z.' ] #.x.c.v.b.",
"g.3.n.H q.J J J n A n n U 4. .m.M.N.V 6.B.V.C.W a.W Z.9.x.c.A.A.",
"S.S.3.D.3.q.q.J J n n 7.t.*.F.F.m.G.V H.J.X.K.Q ' L.P.F 0.I.v.U.",
"S.S.S.D.D.q.J J J n 7.l Y.M.T.T.m.G O.R.E.E.W.Q ' W P.Q.%.d.!.~.",
"^./.S.(.n.D.).q.J J n & y.2._.M.w.e.W.o.`.J.'.Q W Z.9.x.<.d.U.].",
"[././.S.p.D.D.D.q.J n 7.* k.&.{.V V.9 `.B.'.C.L.Z.Q }.|. X!..XXX",
"oXOXOX` p.p.(.).).q.q.7.7.y.V 6.+X@XH.#Xa.Z.a.L.Z.Q.|.<.d.$X].%X",
"u.] &XOXa.p.p.(.(.).D.q.7.T % m r.b ' (.(.z.L.Q #X*Xc.d.!..X=X-X",
"1 ;XZ.&XL.a.:Xp.(.(.).H >XI >XT l ,X).p.a.|.<XQ.I.'.1X2XU.].3X1 ",
"  4X;XP.Z.&XL.a.p.p.,Xc B e.c K g.5X6Xo.7X8X9X<.0XqXqXwX].eX=.  ",
"  rXF ;X;XZ.Z.L.L.z.& i.% tX6.`.yXu 7 5.7XuX0X6X9XiXpXeX=XaX.   ",
"    4X$.}.9.P.Z.Z.L.` W.7Xi 8XC o.sXP.<XQ.B.v qXiXdX3XaX3X%X    ",
"      D fXs.}.}.}.9.P.5.dXv <Xs.|.K.I.sXB.$X=XiXdXdX3X3XgX      ",
"      } 0.*XfXs.fX|.fX#X|.c.I.v hXqXqXqXqXpXjXdXdXiX3XaX.       ",
"        } 0.*X*X<.*Xc.d.v $XwXqXpXpXiXiXkX`.dXkXkXjXaXlX        ",
"          } { *X Xd.d.2X$XqXqX9XiXiXiXiXiXjXkXjXzXgX.           ",
"              xXcXv.v.1X$XvX].qXuX9XjXjX3XzXpXzX%X              ",
"                } bX1XvXvXvX].].=XqX=X9XaX3X%X.                 ",
"                    1 ~ = A.vX=XeX=XU.%XnX1                     "
};
