/* XPM */
static char *face_smile_xpm[] = {
/* columns rows colors chars-per-pixel */
"32 32 245 2",
"   c None",
".  c #d5d5d0",
"X  c #cdcdcc",
"o  c #c6c6bc",
"O  c #a9a9aa",
"+  c #777672",
"@  c #565654",
"#  c #454544",
"$  c #3c3a32",
"%  c #3e3a24",
"&  c #666234",
"*  c #aa9e3c",
"=  c #e8d254",
"-  c #e7ce40",
";  c #decb47",
":  c #ae9e44",
">  c #7a7244",
",  c #5a563c",
"<  c #6a6a6c",
"1  c #9e9e9c",
"2  c #aeaeac",
"3  c #c3c2bc",
"4  c #727274",
"5  c #4c4c4a",
"6  c #333231",
"7  c #1c1c0c",
"8  c #221e04",
"9  c #36321c",
"0  c #5a4e0c",
"q  c #8e802c",
"w  c #887a34",
"e  c #7d6a14",
"r  c #4c4620",
"t  c #6a6654",
"y  c #524e44",
"u  c #25220c",
"i  c #17160d",
"p  c #16120c",
"a  c #1d1d1c",
"s  c #363631",
"d  c #817e71",
"f  c #b2b2b4",
"g  c Gray14",
"h  c #2b2b2c",
"j  c #3e3e37",
"k  c #5d5d5c",
"l  c #928234",
"z  c #8a8a8c",
"x  c #a29e7c",
"c  c #514d34",
"v  c #edd221",
"b  c #f9de34",
"n  c #665e34",
"m  c #f4da54",
"M  c #9c8a1c",
"N  c #d6be27",
"B  c #f9de24",
"V  c #f1da30",
"C  c #ddc22c",
"Z  c #a28e3c",
"A  c #d2b234",
"S  c #f9da37",
"D  c #c1b241",
"F  c #675a0c",
"G  c #6e6a4c",
"H  c #fae233",
"J  c #c2b450",
"K  c #caaa4c",
"L  c #cbae37",
"P  c #c6ae54",
"I  c #eade89",
"U  c #ecd62c",
"Y  c #d6c64c",
"T  c #cec26c",
"R  c #dad29c",
"E  c #e6e2b4",
"W  c #f2eaac",
"Q  c #fcee89",
"!  c #f8e664",
"~  c #f8e24a",
"^  c #e2da8c",
"/  c #ded6a4",
"(  c #d2c684",
")  c #ccbc70",
"_  c #d2ba4c",
"`  c #d6b634",
"'  c #cba62e",
"]  c #bab294",
"[  c #dadacc",
"{  c #f6d636",
"}  c #fcec79",
"|  c #fef2a5",
" . c #faee9e",
".. c #fef297",
"X. c #fae650",
"o. c #f6ea9c",
"O. c #f2e587",
"+. c #eed55c",
"@. c #e6ca3c",
"#. c #daba2c",
"$. c #caaa2c",
"%. c #c39e32",
"&. c #cecab1",
"*. c #ead674",
"=. c #f6da26",
"-. c #7a764c",
";. c #525234",
":. c #aaa26c",
">. c #dad27c",
",. c #f0e27a",
"<. c #e4c22c",
"1. c #be9e2c",
"2. c #baa664",
"3. c #c6be81",
"4. c #0a0a04",
"5. c #fdf5b4",
"6. c #e2da97",
"7. c #dfba2c",
"8. c #d2b229",
"9. c #aa924c",
"0. c #f5d239",
"q. c #f5d624",
"w. c #d2ca84",
"e. c #faea60",
"r. c #ccc484",
"t. c #eade98",
"y. c #f2de6c",
"u. c #e4c222",
"i. c #d2ae23",
"p. c #b78e1f",
"a. c #f8e884",
"s. c #e6de84",
"d. c #c2ba7c",
"f. c #c6ba7c",
"g. c #ecda6c",
"h. c #e2be2e",
"j. c #b18e28",
"k. c #b09e68",
"l. c #dace7c",
"z. c #eae294",
"x. c #d8ce90",
"c. c #dece64",
"v. c #eac530",
"b. c #e1be23",
"n. c #c5a221",
"m. c #be9a22",
"M. c #f1ce38",
"N. c #f2d226",
"B. c #a89834",
"V. c #a6922c",
"C. c #c6ae2c",
"Z. c #e6c624",
"A. c #dab721",
"S. c #caa22c",
"D. c #bb961f",
"F. c #af8a1c",
"G. c #a68838",
"H. c #eac644",
"J. c #eeca38",
"K. c #e6d65c",
"L. c #fdf6c9",
"P. c #867610",
"I. c #60540c",
"U. c #685e14",
"Y. c #b49a18",
"T. c #d5b91c",
"R. c #cdaa21",
"E. c #c2a244",
"W. c #b4961c",
"Q. c #aa8620",
"!. c #a47e20",
"~. c #eeca2c",
"^. c #fefacc",
"/. c #c6b438",
"(. c #7c6e1c",
"). c #50460c",
"_. c #928117",
"`. c #deba21",
"'. c #d6b120",
"]. c #cba620",
"[. c #c39a1e",
"{. c #b89220",
"}. c #a9821e",
"|. c #9a7a34",
" X c #efce25",
".X c #daca5c",
"XX c #eee6b4",
"oX c #eada5c",
"OX c #6f620c",
"+X c #c6a62c",
"@X c #92763c",
"#X c #e2c654",
"$X c #b8ac6c",
"%X c #beb270",
"&X c #a08e1c",
"*X c #aa8e1c",
"=X c #a28a14",
"-X c #ccaf1c",
";X c #a27a1e",
":X c #9c8240",
">X c #deca74",
",X c #eac624",
"<X c #eace1c",
"1X c #a29224",
"2X c #c3a619",
"3X c #342d04",
"4X c #9d761e",
"5X c #9e8e60",
"6X c #deb630",
"7X c #837211",
"8X c #463a0c",
"9X c #6e5e0d",
"0X c #c49e21",
"qX c #ae8620",
"wX c #9c7a24",
"eX c #966e1c",
"rX c #aea68c",
"tX c #d9b22f",
"yX c #bb9e19",
"uX c #e8ca24",
"iX c #9a8214",
"pX c #caa221",
"aX c #906a1f",
"sX c #d2be6c",
"dX c #544a0e",
"fX c #d2aa21",
"gX c #926e1a",
"hX c #9a8a64",
"jX c #d2ceb4",
"kX c #d2aa2c",
"lX c #d6ae2c",
"zX c #78660e",
"xX c #9a721c",
"cX c #8e661c",
"vX c #c2beb4",
"bX c #a89214",
"nX c #ae9214",
"mX c #b28e1c",
"MX c #c29624",
"NX c #babaa4",
"BX c #c2ae74",
"VX c #aa7e1c",
"CX c #9f9267",
"ZX c #beb68c",
"AX c #967321",
/* pixels */
"    . . X o O + @ # $ % & * = - - ; : > , @ @ @ < 1 2 3 X . .   ",
"    . 1 4 5 4 O + 6 7 7 8 9 0 q w e r t y u i p a s # < d f .   ",
"    . # 6 g < O + 6 a a a g g h h h j 4 k h a a a a g h g 3     ",
"      k @ g s 5 $ g a a g g h q l h g s h g g g g h h z 5       ",
"      k x r g a g a g g g h c v b , a a a g g g g h n 1 k       ",
"      d m M r p a a a g h 6 N B V C j g g a g g h h Z A +       ",
"      m S S D F s g 6 5 G * H B B B J c h g h s c w K L P       ",
"    I S S b S U Y T R E W Q ! H B b ~ ^ / R ( ) _ N ` A ' ]     ",
"  [ { S S b b b b } |  .| | ..X.H ! Q .. .o.O.+.@.C #.A $.%.&.  ",
"  *.{ S S S =.S ~  ./ -.;.:...} X.} >.> c d / ,.= <.#.A ' 1.2.  ",
"[ { { { S S B B X...3.i 4.c 5.Q ! Q 3.i 4.j 6.O.+.<.7.8.' 1.9.. ",
"/ 0.0.{ q.S =.B b Q w.$ i -...Q e.O.r.$ i n t.y.+.u.N i.' 1.p.] ",
"*.0.{ { =.=.=.B B ! O.( 3.6...a.s.s.^ 3.d.f.t.g.- <.h.8.' %.j.k.",
"+.0.0.{ q.=.=.B B H e.} Q Q Q Q ,.l.w.6.z.x.c.- v.b.#.8.n.m.j.9.",
"M.0.N.{ q.q.q.B B B B B H Q | 5.W l.D B.: V.C.C Z.b.A.8.S.D.F.G.",
"H.J.M.0.N.q.=.=.=.B B V K. .L.L. .^ C.P.I.U.Y.T.b.b.A.R.E.W.Q.!.",
"J.J.~.N.0.N.q.=.=.B B U >.W L.^.5.z./.(.).)._.T.N `.'.].[.{.}.|.",
"H.v.J. Xv N.U q.=.U =.U .Xz.E XXo.oX_.F OXI.M A.b.A.i.+Xm.G.}.@X",
"#Xv.v.v. X XN.q.=.=.=.U ; T $X%XD &X0 OX*X=X-Xb.`.A.].n.D.Q.;X:X",
">Xh.h.v.,X<XN <Xv q.v V U ; D B.1X_.P.2XN T.b.e 3X*X].m.j.!.4X5X",
"x.6X7.<.u.,Xb.7X-Xq.v q.=.U - N T.T.C <X<X&X8X8 9XR.0X{.qXwXeXrX",
". tX6X6Xb.u.Z.-X(.9XyXuX<Xq.U v <X<XT.iXF p 3XF yXpXm.j.}.4XaX. ",
"  sXtXtX`.`.b.u.u.M F ).dXF F I.I.dX3Xu 3XdXe fX].[.{.Q.wXgXhX  ",
"  jXkXfXlX6X`.b.u.u.,X2X7XzXzXOX9X9Xe zXe Y.].].yX{.F.!.xXcXvX  ",
"    ) kXR.i.'.A.`.b.u.u.u.A.-XW.bXnX0Xn.i.fXn.[.{.qX!.xXaX5X    ",
"      K S.].fX'.'.A.A.A.`.`.`.A.A.'.i.i.].0X[.p.F.!.4XaX@X      ",
"      jX%.0XpX].fXfXi.i.'.i.'.i.fXR.pXpX[.{.mXQ.!.4XgXcXvX      ",
"        &.%.MX0XpXpXpXpX].].pXpX0X0Xm.{.mXF.}.;X4XaXcXNX        ",
"          jX%.MXMXMX[.MX[.[.D.MX{.p.mXF.Q.;X4XeXaX@X3           ",
"              BXp.p.p.p.p.p.p.F.F.Q.VX;X4XxXgXcXCX              ",
"                &.2.qX}.qX}.VX;X;X4X4XeXgXcX5X3                 ",
"                    . ZX: G.}.4XxXAX:XCX$X.                     "
};
