/* XPM */
static char *face_sad_xpm[] = {
/* columns rows colors chars-per-pixel */
"32 32 242 2",
"   None",
".  c #dad6cc",
"X  c #e2da9c",
"o  c #e8da74",
"O  c #e8d658",
"+  c #ecd63c",
"@  c #ecd236",
"#  c #e6ce3c",
"$  c #e5ca37",
"%  c #deca54",
"&  c #d6ca6c",
"*  c #d8ce94",
"=  c #d5d5cc",
"-  c #dedab2",
";  c #eede74",
":  c #f4de54",
">  c #f8da38",
",  c #f5d637",
"<  c #e2c634",
"1  c #e2c654",
"2  c #eade87",
"3  c #fade37",
"4  c #f0da3a",
"5  c #edd228",
"6  c #eace34",
"7  c #dcc236",
"8  c #dcbe31",
"9  c #d2c67c",
"0  c #dadacc",
"q  c #f6da27",
"w  c #f0da2c",
"e  c #d2ba54",
"r  c #fae223",
"t  c #f9de25",
"y  c #f4d627",
"u  c #eeca31",
"i  c #e3c22d",
"p  c #d2b644",
"a  c #ceb23c",
"s  c #cecab1",
"d  c #f4da54",
"f  c #ebd62c",
"g  c #e5ca27",
"h  c #dcba2e",
"j  c #d2ceb2",
"k  c #b9a219",
"l  c #eacb27",
"z  c #d2b22e",
"x  c #ceae34",
"c  c #c6ae54",
"v  c #eada7c",
"b  c #3a360c",
"n  c #766a11",
"m  c #9c8a17",
"M  c #020204",
"N  c #605610",
"B  c #161604",
"V  c #c9b21c",
"C  c #c1aa1f",
"Z  c #655a11",
"A  c #caae1f",
"S  c #cba62e",
"D  c #bab294",
"F  c #0d0c04",
"G  c #534a0c",
"H  c #151204",
"J  c #a69614",
"K  c #cab61c",
"L  c #060604",
"P  c #caaa2c",
"I  c #c49e2a",
"U  c #4c420c",
"Y  c #c2ae14",
"T  c #baa61c",
"R  c #efce2b",
"E  c #d8b22a",
"W  c #c2a244",
"Q  c #baaa6c",
"!  c #f5d239",
"~  c #665e14",
"^  c #2a2204",
"/  c #9e8e14",
"(  c #0a0604",
")  c #160e04",
"_  c #dec228",
"`  c #d3ae26",
"'  c #caa22c",
"]  c #bd9a26",
"[  c #b18e27",
"{  c #363204",
"}  c #ccba24",
"|  c #faea4c",
" . c #f4e244",
".. c #7a6e14",
"X. c #423a0c",
"o. c #e6ce1c",
"O. c #261e07",
"+. c #d1b221",
"@. c #caaa4c",
"#. c #bd9e28",
"$. c #b89224",
"%. c #ead674",
"&. c #fae65c",
"*. c #eadc5c",
"=. c #dcca4c",
"-. c #201604",
";. c #927e14",
":. c #e3c222",
">. c #d8ba1f",
",. c #cba622",
"<. c #ae9e6c",
"1. c #eed25c",
"2. c #fcee84",
"3. c #cec264",
"4. c #c6ae20",
"5. c #e5be2f",
"6. c #debc22",
"7. c #b99621",
"8. c #aa924c",
"9. c #eecb3f",
"0. c #fcf2b0",
"q. c #fef6b4",
"w. c #f4eaa0",
"e. c #dace74",
"r. c #beae3c",
"t. c #d8be1c",
"y. c #e2be23",
"u. c #d8b629",
"i. c #c6a62c",
"p. c #c19624",
"a. c #ae8a1c",
"s. c #a68634",
"d. c #fdf6c9",
"f. c #e2d67c",
"g. c #c0b240",
"h. c #867610",
"j. c #5e520c",
"k. c #6e5e0c",
"l. c #b09814",
"z. c #cdaa22",
"x. c #aa8624",
"c. c #a57e22",
"v. c #f2d226",
"b. c #dece64",
"n. c #f2eab0",
"m. c #fefacc",
"M. c #eee27c",
"N. c #c6b434",
"B. c #7e720c",
"V. c #4e460c",
"C. c #d0b61c",
"Z. c #9c761f",
"A. c #eac644",
"S. c #eac530",
"D. c #eee6b4",
"F. c #928218",
"G. c #6e620c",
"H. c #9a7a34",
"J. c #dece44",
"K. c #b8b06c",
"L. c #564e14",
"P. c #a3921c",
"I. c #a28e14",
"U. c #e2ba2c",
"Y. c #d2aa29",
"T. c #9c7a24",
"R. c #9a8244",
"E. c #deca74",
"W. c #eac624",
"Q. c #a69634",
"!. c #bea614",
"~. c #a6821e",
"^. c #9e8e60",
"/. c #deb630",
"(. c #9e8617",
"). c #966e1c",
"_. c #aea68c",
"`. c #361e14",
"'. c #3d2614",
"]. c #3a2a0c",
"[. c #462a14",
"{. c #34220c",
"}. c #3e320c",
"|. c #caa224",
" X c #b68e24",
".X c #906a1e",
"XX c #ceba74",
"oX c #a24a44",
"OX c #b44a4c",
"+X c #a34544",
"@X c #4e2224",
"#X c #7a3234",
"$X c #7e3e2c",
"%X c #9a7e14",
"&X c #ae8624",
"*X c #916e1a",
"=X c #9a8a64",
"-X c #d6d2b4",
";X c #ac4a4b",
":X c #c65654",
">X c #c65254",
",X c #cc5554",
"<X c #863d3c",
"1X c #c04e4c",
"2X c #602c2c",
"3X c #99721d",
"4X c #8e661c",
"5X c #c2beb4",
"6X c #b94e4c",
"7X c #d25654",
"8X c #d65a5c",
"9X c #763634",
"0X c #9c4244",
"qX c #7f3a3c",
"wX c #5c4c0c",
"eX c #6b3234",
"rX c #dc5e5c",
"tX c #924244",
"yX c #923e3c",
"uX c #92763c",
"iX c #823634",
"pX c #1a1604",
"aX c #7a5b14",
"sX c #c69a24",
"dX c #6c5a14",
"fX c #201c04",
"gX c #babaa4",
"hX c #c26e3c",
"jX c #c05254",
"kX c #c4c2b4",
"lX c #c2b074",
"zX c #72422c",
"xX c #baa264",
"cX c #b65644",
"vX c #6e3a2c",
"bX c #c6c6b4",
"nX c #ba927c",
"mX c #ae6654",
"MX c #82522c",
"NX c #926e3c",
"BX c #9f9267",
"VX c #b6ae8c",
/* pixels */
"                    . X o O + @ # $ % & * =                     ",
"                - ; : > , > , @ @ # $ < < 1 & .                 ",
"              2 : 3 3 3 4 4 > , @ 5 6 $ < < 7 8 9               ",
"          0 : 3 3 3 3 3 3 q w w w @ 5 6 6 < < 8 e e =           ",
"        - : 3 3 3 r 3 t 3 t > q q w y 5 5 u < i 8 p a s         ",
"      - d > 3 3 3 t 3 3 t t t t t q y f 5 6 g < 8 h a a j       ",
"      d > 3 3 3 3 t r r t r t t t t k k y 5 6 l 7 h z x c       ",
"    v d 3 > > 3 t b n t r m M t t q N B V 5 C Z A 7 h x S D     ",
"  0 > , > 3 q t 3 V F m G H J t r t K H F N L H P 8 h a P I s   ",
"  v , > > q 3 t t r U L B Y r r t t t T M M U R g i h E S W Q   ",
". ! , > > > q q t ~ M ^ M J r r r t / ( M M ) _ g i h ` ' ] [ = ",
"X , , , y q t t t { K r n M } |  .4 ..X.o.k F O.l _ 8 +.@.#.$.D ",
"%.! ! , > q q q t t r r r } 4 &.*.=.7 g f o.n -.;.:.>.z ,.#.[ <.",
"1.! , y , y q t t t t t r | 2.2.2 3.V Y >.+.>.4.A 5.6.z ' 7.[ 8.",
"9.R ! y y q q q t t r t r 2.0.q.w.e.r./ m / C t.:.y.u.+.i.p.a.s.",
"9.u R ! y y y q q t q f O w.d.d.0.f.g.h.j.k.l.>._ 6.u.z.I 7.x.c.",
"9.u u ! v.y y q t t t o.b.n.m.d.q.M.N.B.V.V.;.C._ 6.E P ] $.s.Z.",
"A.S.u u R v.y y y q t f & 2 D.n.w.*.F.Z G.j.m >.y.u.` i.] a.c.H.",
"1 S.S.u u R v.y y y q w J.3.K.K.g./ L.G.P.I.z.t.U.C.Y.I 7.x.T.R.",
"E.5.5.W.l R o.5 5 y w f f =.K.Q.P.;.h.!.t.6.:.y.6.` ,.#.[ ~.Z.^.",
"* /.U.5.:.l l R o.v.o.;.Z j.N L.V.V.G (.k :.6.6.C.z.I $.x.T.)._.",
". E /./.y.y.W.W.l l.M L `.'.].O.^ [.[.{.}.(.l.E z.|.p. Xc.Z..X= ",
"  XXE E U.U.y.:.A H M [.oXOX+X@X#X+X+X$X'.M %X,.,.#.$.&XZ.*X=X  ",
"  -XY.` ` u.6.` ^ M ( ;X:X>X,X<X;X>X1X;X2XO.^ %X7.$.x.c.3X4X5X  ",
"    XX,.Y.` E (.M H '.6X7X8XOX9XOX,XOX0XqXF M wX~.a.~.Z..X^.    ",
"      @.|.|.Y.}.M ) eX,XrX8X;XtX>X,XOXyX9X( -.) *Xc.Z..XuX      ",
"      j I I |.3XL ) iX7XrX8XOX;X,X,X6XyX9XpXM L aX3X.X4X5X      ",
"        s I sXI dXM 7X7X8X7X>X1X>X1X+X<X2XM fXaX3X*X.XgX        ",
"          j W p.$.hX7X,X7X7X,X,XjX6X0XqX2XaXZ.3X.XuXkX          ",
"              lX XhXjX>XjX>X1X6XOX0XqXeXzX).*X4X^.              ",
"                s xXcX6XOXOX;X+XyXqXeXvX*X4X=XbX                ",
"                    -XnXmX0XyXiX9XMXNXBXVX=                     "
};
