<svg xmlns="http://www.w3.org/2000/svg" xmlns:xlink="http://www.w3.org/1999/xlink" xml:space="preserve" width="64" height="64"><defs><linearGradient id="a"><stop offset="0" style="stop-color:#0eaf64;stop-opacity:1"/><stop offset="1" style="stop-color:#11d57a;stop-opacity:1"/></linearGradient><linearGradient xlink:href="#a" id="b" x1="105.23" x2="105.23" y1="83.26" y2="131.489" gradientTransform="translate(-74 -78.698)" gradientUnits="userSpaceOnUse"/></defs><path d="M31.459 3.996q-7.533 0-12.984 2.576t-8.405 7.35c-1.196 1.932-2.024 4.091-2.494 6.47H7.13v4.422c-.003.159-.014.313-.014.473h17.078q0-2.954.883-5 .916-2.046 2.541-3.107t3.742-1.06q1.977 0 3.426.87a5.76 5.76 0 0 1 2.295 2.35q.812 1.515.813 3.521 0 2.426-1.096 4.32a14.8 14.8 0 0 1-2.684 3.335 201 201 0 0 1-3.07 2.726L5.971 51.215l.293 12.783 49.08.004v-12.2l-26.12-3.187c6.73-3.479 8.891-4.756 12.014-6.909s5.16-3.729 7.24-5.506q3.163-2.7 4.91-5.752c1.193-2.034 1.79-4.856 1.79-7.451v-5.005h-.438a14.5 14.5 0 0 0-2.642-5.623q-3.038-4.054-8.405-6.213-5.37-2.16-12.234-2.16" style="font-weight:900;font-size:81.3133px;font-family:&quot;Inter Variable&quot;;-inkscape-font-specification:&quot;Inter Variable Heavy&quot;;fill:#2d9043;fill-opacity:1;stroke-width:3.6;stroke-linecap:round;stroke-linejoin:round"/><path d="M6.264 57.35 5.97 44.565l25.073-15.322a230 230 0 0 0 3.62-2.727 15.5 15.5 0 0 0 3.162-3.333q1.29-1.895 1.29-4.32 0-2.007-.957-3.522-.958-1.515-2.704-2.35-1.707-.87-4.037-.87-2.497 0-4.411 1.06-1.915 1.062-2.996 3.107-1.04 2.046-1.04 5H7.115q0-6.591 2.955-11.364t8.405-7.35T31.46 0q6.865 0 12.234 2.16 5.367 2.158 8.406 6.213 3.079 4.014 3.079 9.621 0 4.205-1.79 7.501-1.747 3.295-4.91 6.213c-2.08 1.92-4.118 3.622-7.24 5.948-3.124 2.326-5.285 3.705-12.013 7.463l26.12.037v12.199z" aria-label="2" style="font-weight:900;font-size:81.3133px;font-family:&quot;Inter Variable&quot;;-inkscape-font-specification:&quot;Inter Variable Heavy&quot;;fill:url(#b);fill-opacity:1;stroke-width:3.6;stroke-linecap:round;stroke-linejoin:round"/></svg>