<svg xmlns="http://www.w3.org/2000/svg" xmlns:xlink="http://www.w3.org/1999/xlink" xml:space="preserve" width="64" height="64"><defs><linearGradient id="a"><stop offset="0" style="stop-color:#df1b30;stop-opacity:1"/><stop offset="1" style="stop-color:#ed333b;stop-opacity:1"/></linearGradient><linearGradient xlink:href="#a" id="b" x1="179.999" x2="179.999" y1="82.529" y2="133.129" gradientTransform="translate(-148 -78.698)" gradientUnits="userSpaceOnUse"/></defs><path d="M32 5.735q-7.574 0-12.983 2.424-5.408 2.388-8.282 6.518a16 16 0 0 0-1.868 3.582H7.865v3.998h16.144q0-2.046 1.041-3.599a7.03 7.03 0 0 1 2.83-2.423q1.832-.873 4.119-.871 2.205 0 3.87.794 1.706.795 2.663 2.198.998 1.402.998 3.22t-1.08 3.144q-1.04 1.288-3.038 2.007c-1.304.455-2.576.682-4.435.682h-3.229l-.308 10.607h3.228q2.913 0 5.036.795 2.121.759 3.286 2.16t1.167 3.296q0 1.818-1.083 3.257-1.04 1.403-2.955 2.198-1.872.795-4.369.794-2.746 0-4.743-1.02a7.27 7.27 0 0 1-3.038-2.956q-1.041-1.932-1.041-4.584v-3.999H6.698v5.736q0 5.267 2.58 9.926 2.623 4.622 8.157 7.5Q22.968 64 31.833 64q7.617 0 13.317-2.198 5.742-2.197 8.945-5.986 3.204-3.827 3.205-8.637v-5.736l-1.41-.073c-.083-.16-.164-.32-.254-.479q-1.623-2.954-4.829-4.925-3.16-1.97-7.821-2.387v-.113q5.285-.569 8.82-3.713 3.58-3.183 3.58-8.334v-5.738l-1.318.113a13 13 0 0 0-1.678-2.52q-2.955-3.522-8.24-5.531T32 5.735" style="font-weight:900;font-size:81.3133px;font-family:&quot;Inter Variable&quot;;-inkscape-font-specification:&quot;Inter Variable Heavy&quot;;fill:#bc1529;fill-opacity:1;stroke-width:3.6;stroke-linecap:round;stroke-linejoin:round"/><path d="M31.833 58.262q-8.863 0-14.398-2.878-5.535-2.88-8.156-7.5-2.58-4.661-2.58-9.927h16.229q0 2.653 1.04 4.584a7.27 7.27 0 0 0 3.038 2.955q1.997 1.023 4.743 1.023 2.497 0 4.37-.796 1.913-.795 2.954-2.196a5.3 5.3 0 0 0 1.083-3.259q0-1.893-1.166-3.295-1.166-1.403-3.287-2.16c-1.415-.53-2.977-.795-4.919-.795h-3.23l.31-10.607h3.229c1.858 0 3.014-.228 4.318-.683q1.998-.72 3.039-2.007 1.08-1.326 1.081-3.144t-.999-3.22q-.956-1.403-2.663-2.197-1.665-.796-3.87-.796-2.288 0-4.12.87a7.03 7.03 0 0 0-2.829 2.425q-1.04 1.555-1.04 3.6H7.863q0-5.191 2.871-9.32 2.872-4.128 8.281-6.515Q24.425-.001 32-.001q6.864 0 12.15 2.008t8.239 5.53q2.997 3.525 2.997 8.145 0 5.152-3.579 8.335-3.537 3.143-8.822 3.712v.115q4.66.414 7.823 2.385 3.204 1.971 4.827 4.925a12.46 12.46 0 0 1 1.664 6.288q0 4.812-3.204 8.638-3.204 3.787-8.946 5.986-5.701 2.196-13.316 2.196" aria-label="3" style="font-weight:900;font-size:81.3133px;font-family:&quot;Inter Variable&quot;;-inkscape-font-specification:&quot;Inter Variable Heavy&quot;;fill:url(#b);fill-opacity:1;stroke-width:3.6;stroke-linecap:round;stroke-linejoin:round"/></svg>