<svg xmlns="http://www.w3.org/2000/svg" xmlns:xlink="http://www.w3.org/1999/xlink" xml:space="preserve" width="64" height="64"><defs><linearGradient id="a"><stop offset="0" style="stop-color:#ff7800;stop-opacity:1"/><stop offset="1" style="stop-color:#e05600;stop-opacity:1"/></linearGradient><linearGradient xlink:href="#a" id="b" x1="328.203" x2="328.203" y1="132.839" y2="83.729" gradientTransform="translate(-296 -78.698)" gradientUnits="userSpaceOnUse"/></defs><g style="fill:#d1a60a;fill-opacity:1"><path d="M291.873-5.058 290.279 28.7v3.148h15.718c.462-.714 1.27-1.603 2.065-2.113q1.968-1.24 4.774-1.241 2.187 0 3.862 1.058 1.677 1.02 2.625 2.88.984 1.82.984 4.225 0 2.37-.947 4.155a7.14 7.14 0 0 1-2.624 2.809c-1.118.656-2.418.98-3.9.98q-2.187 0-3.937-.945a7.46 7.46 0 0 1-2.732-2.551c-.526-.877-.832-1.852-.936-2.916l-15.9-.001v2.864q.397 6.233 3.375 10.72 3.018 4.487 8.14 6.909 5.16 2.382 11.99 2.382 7.187 0 12.506-2.739 5.36-2.74 8.299-7.545 2.938-4.803 2.938-10.996V33.77h-.963a18 18 0 0 0-.744-1.85 20.3 20.3 0 0 0-4.565-6.39 21.2 21.2 0 0 0-6.592-4.25 19.25 19.25 0 0 0-7.584-1.548q-3.255 0-5.954.952c-1.8.609-1.88 1.509-3.097 2.7H307l.895-13.274h24.135l1.139-15.17z" style="font-weight:900;font-size:81.3133px;font-family:&quot;Inter Variable&quot;;-inkscape-font-specification:&quot;Inter Variable Heavy&quot;;fill:#b84600;fill-opacity:1;stroke-width:3.60001;stroke-linecap:round;stroke-linejoin:round" transform="matrix(1.04807 0 0 .95413 -296 5.736)"/></g><path d="m9.903.91-1.67 32.21h16.166q.79-1.111 2.149-1.906 2.247-1.289 5.45-1.288 2.497 0 4.411 1.098a7.6 7.6 0 0 1 2.996 2.995q1.124 1.893 1.125 4.392 0 2.463-1.083 4.32a7.73 7.73 0 0 1-2.995 2.917q-1.915 1.023-4.453 1.023-2.498-.001-4.494-.986a8.2 8.2 0 0 1-3.122-2.65 6.5 6.5 0 0 1-.48-.862H7.648c.553 2.71 1.593 5.12 3.128 7.224q3.162 4.28 8.532 6.592 5.408 2.274 12.566 2.274 7.53 0 13.107-2.614 5.617-2.615 8.697-7.2 3.08-4.581 3.08-10.49 0-4.019-1.789-7.503c-1.144-2.297-2.77-4.368-4.785-6.097a22.6 22.6 0 0 0-6.908-4.055 21.9 21.9 0 0 0-7.95-1.477q-3.411 0-6.24.908-2.83.872-4.743 2.576h-.084l.791-10.316h27.22L53.185.908Z" style="font-weight:900;font-size:81.3133px;font-family:&quot;Inter Variable&quot;;-inkscape-font-specification:&quot;Inter Variable Heavy&quot;;fill:url(#b);stroke-width:3.6;stroke-linecap:round;stroke-linejoin:round"/></svg>