<svg xmlns="http://www.w3.org/2000/svg" xmlns:xlink="http://www.w3.org/1999/xlink" xml:space="preserve" width="64" height="64"><defs><linearGradient id="a"><stop offset="0" style="stop-color:#d04e8b;stop-opacity:1"/><stop offset="1" style="stop-color:#da76a9;stop-opacity:1"/></linearGradient><linearGradient xlink:href="#a" id="b" x1="402" x2="402" y1="81.987" y2="133.671" gradientTransform="translate(-370 -78.698)" gradientUnits="userSpaceOnUse"/></defs><path d="M33.121 5.736q-6.326 0-11.318 2.084-4.993 2.045-8.489 5.947-3.493 3.901-5.326 9.394c-.686 2.06-1.172 4.268-1.472 6.614h-.36v5.736q0 6.742 1.79 12.047 1.83 5.267 5.284 8.941 3.495 3.675 8.448 5.606 4.993 1.894 11.361 1.894 7.241 0 12.816-2.463 5.618-2.5 8.78-6.931 3.205-4.471 3.205-10.381h.002v-5.736h-.881a16.7 16.7 0 0 0-1.951-4.075c-3.87-7.486-10.496-11.557-18.975-11.941q-2.704 0-5.008.643a12.5 12.5 0 0 0-4.093 2.007c-2.114 1.578-3.35 3.554-3.328 3.487q0-4.395.986-7.54 1.024-3.143 3.07-4.849 2.085-1.704 5.266-1.705 3.105 0 5.353 1.592.807.549 1.397 1.242h16.736v-3h-2.976l-.01-.014q-3.078-3.94-8.28-6.25-5.16-2.349-12.027-2.35ZM32.88 33.59q2.148 0 3.77.865a6.6 6.6 0 0 1 2.607 2.407q.951 1.506.951 3.462t-.951 3.497a6.67 6.67 0 0 1-2.608 2.375q-1.62.863-3.77.863-2.078.002-3.733-.863a6.67 6.67 0 0 1-2.608-2.375q-.915-1.54-.916-3.497 0-1.474.53-2.693a6.7 6.7 0 0 1 1.513-2.148 6.9 6.9 0 0 1 2.29-1.38q1.338-.513 2.925-.513" style="font-weight:900;font-size:81.3133px;font-family:&quot;Inter Variable&quot;;-inkscape-font-specification:&quot;Inter Variable Heavy&quot;;fill:#b22f6c;fill-opacity:1;stroke-width:3.6;stroke-linecap:round;stroke-linejoin:round"/><path d="M33.123 0q-6.326 0-11.318 2.083-4.994 2.046-8.489 5.947-3.495 3.903-5.326 9.395-1.831 5.493-1.832 12.35 0 6.742 1.79 12.046 1.83 5.266 5.284 8.942 3.495 3.674 8.448 5.605 4.994 1.895 11.361 1.895 7.24 0 12.816-2.463 5.618-2.5 8.78-6.932 3.205-4.47 3.205-10.38 0-5.53-2.83-9.81-2.79-4.283-7.74-6.745-4.91-2.463-11.235-2.463-3.08 0-5.701.644-2.58.645-4.66 2.008-2.081 1.365-3.705 3.486h-.082q0-4.395 1.123-7.539 1.165-3.144 3.496-4.85 2.371-1.704 5.992-1.704 3.537 0 5.783 1.591.808.551 1.397 1.243h16.736c-.6-2.062-1.59-3.98-2.986-5.75q-3.079-3.94-8.28-6.25Q39.99 0 33.123 0m-.25 30.533q2.539 0 4.453 1.024 1.956 1.022 3.08 2.84 1.124 1.78 1.123 4.091 0 2.31-1.123 4.13-1.124 1.78-3.08 2.804-1.914 1.022-4.453 1.021-2.455 0-4.41-1.02-1.956-1.025-3.08-2.806-1.082-1.818-1.082-4.129 0-1.742.625-3.18a7.9 7.9 0 0 1 1.789-2.54 8.2 8.2 0 0 1 2.705-1.629q1.581-.606 3.453-.606" style="font-weight:900;font-size:81.3133px;font-family:&quot;Inter Variable&quot;;-inkscape-font-specification:&quot;Inter Variable Heavy&quot;;fill:url(#b);stroke:none;stroke-width:1;stroke-linecap:round;stroke-linejoin:miter;stroke-dasharray:none"/></svg>