<svg xmlns="http://www.w3.org/2000/svg" xmlns:xlink="http://www.w3.org/1999/xlink" xml:space="preserve" width="64" height="64"><defs><linearGradient id="a"><stop offset="0" style="stop-color:#5e7082;stop-opacity:1"/><stop offset="1" style="stop-color:#7e929f;stop-opacity:1"/></linearGradient><linearGradient xlink:href="#a" id="b" x1="549.831" x2="549.831" y1="82.154" y2="133.503" gradientTransform="translate(-518 -78.698)" gradientUnits="userSpaceOnUse"/></defs><path d="M31.79 5.735q-7.075 0-12.442 1.932-5.326 1.933-8.322 5.418a12.7 12.7 0 0 0-1.589 2.371H8.07v5.736q0 5.305 3.828 8.56c2.555 2.151 6.067 3.52 10.526 4.11q-4.995.614-8.652 2.406-3.662 1.82-5.66 4.737-.33.496-.607 1.02H6.157v5.76q0 4.888 3.162 8.562 3.204 3.636 8.947 5.644 5.783 2.008 13.523 2.008 7.782 0 13.526-2.008 5.784-2.007 8.988-5.644 3.203-3.674 3.203-8.561v-5.76h-1.377c-.19-.35-.39-.691-.619-1.02q-1.956-2.919-5.66-4.738-3.616-1.793-8.613-2.406 6.734-.92 10.526-4.11 3.83-3.256 3.829-8.56v-5.736h-1.323a12.3 12.3 0 0 0-1.63-2.447q-2.915-3.485-8.24-5.379-5.328-1.895-12.61-1.895m0 8.212q2.247 0 3.87.755 1.666.72 2.54 2.084.914 1.326.914 3.182 0 1.82-.914 3.184-.874 1.363-2.54 2.121-1.623.72-3.87.719-2.205 0-3.828-.719-1.623-.758-2.537-2.12-.875-1.365-.875-3.185 0-1.856.874-3.182a5.8 5.8 0 0 1 2.538-2.084q1.621-.756 3.828-.755m0 23.343q2.415 0 4.248.871 1.872.87 2.914 2.425 1.082 1.517 1.082 3.525 0 1.97-1.082 3.562-1.041 1.554-2.914 2.464-1.875.872-4.248.872t-4.203-.872a7.6 7.6 0 0 1-2.915-2.464q-1.041-1.554-1.04-3.562 0-2.01 1.04-3.525a7.3 7.3 0 0 1 2.915-2.425q1.83-.872 4.203-.871" style="font-weight:900;font-size:81.3133px;font-family:&quot;Inter Variable&quot;;-inkscape-font-specification:&quot;Inter Variable Heavy&quot;;fill:#3b414f;fill-opacity:1;stroke-width:3.6;stroke-linecap:round;stroke-linejoin:round"/><path d="M31.79 58.262q-7.74 0-13.524-2.007-5.743-2.008-8.947-5.645-3.162-3.674-3.162-8.561 0-3.903 1.955-6.781 1.998-2.917 5.66-4.736 3.703-1.818 8.78-2.423v.037q-6.783-.871-10.653-4.13-3.829-3.257-3.829-8.56 0-4.623 2.956-8.107 2.995-3.486 8.322-5.418Q24.716 0 31.79 0q7.282 0 12.61 1.893 5.326 1.894 8.238 5.38 2.956 3.447 2.956 8.182 0 5.304-3.83 8.561-3.827 3.22-10.652 4.13v-.038q5.077.606 8.739 2.424 3.703 1.819 5.66 4.736 1.996 2.88 1.996 6.78 0 4.888-3.204 8.562-3.204 3.637-8.988 5.645-5.743 2.007-13.524 2.007m0-10.53q2.372 0 4.245-.872 1.872-.909 2.913-2.462 1.081-1.592 1.081-3.561 0-2.009-1.081-3.524-1.041-1.553-2.914-2.423-1.831-.872-4.245-.872-2.372 0-4.203.87-1.83.872-2.912 2.425-1.04 1.515-1.04 3.524 0 2.008 1.04 3.56 1.081 1.554 2.914 2.462 1.83.872 4.202.872m0-24.737q2.247 0 3.87-.72 1.664-.757 2.538-2.122.915-1.363.915-3.182 0-1.856-.915-3.182-.874-1.364-2.538-2.084-1.623-.757-3.87-.757-2.206 0-3.828.757-1.624.72-2.539 2.084-.874 1.326-.874 3.182 0 1.819.874 3.182.915 1.365 2.539 2.122 1.622.72 3.828.72" aria-label="8" style="font-weight:900;font-size:81.3133px;font-family:&quot;Inter Variable&quot;;-inkscape-font-specification:&quot;Inter Variable Heavy&quot;;fill:url(#b);stroke-width:3.6;stroke-linecap:round;stroke-linejoin:round"/></svg>