<svg xmlns="http://www.w3.org/2000/svg" xmlns:xlink="http://www.w3.org/1999/xlink" xml:space="preserve" width="64" height="64"><defs><radialGradient xlink:href="#a" id="f" cx="32" cy="32" r="30.488" fx="32" fy="32" gradientTransform="rotate(44.911 13.75 39.576)scale(.66643)" gradientUnits="userSpaceOnUse"/><radialGradient xlink:href="#b" id="e" cx="32" cy="32" r="30.488" fx="32" fy="32" gradientTransform="rotate(14.999 22.212 39.51)scale(.92883)" gradientUnits="userSpaceOnUse"/><radialGradient xlink:href="#c" id="d" cx="64" cy="13.808" r="21.592" fx="64" fy="13.808" gradientTransform="rotate(-45 86.762 153.765)scale(2.09595)" gradientUnits="userSpaceOnUse"/><linearGradient id="c"><stop offset="0" style="stop-color:#ff7800;stop-opacity:1"/><stop offset="1" style="stop-color:#ee3738;stop-opacity:1"/></linearGradient><linearGradient id="b"><stop offset="0" style="stop-color:#ff7800;stop-opacity:1"/><stop offset="1" style="stop-color:#ed333b;stop-opacity:1"/></linearGradient><linearGradient id="a"><stop offset="0" style="stop-color:#f9f06b;stop-opacity:1"/><stop offset="1" style="stop-color:#ff7800;stop-opacity:1"/></linearGradient></defs><path d="m0 0 32 4.083L64 0l-4.082 32 4.083 32-32-4.083L0 64l4.085-32Z" style="fill:url(#d);fill-opacity:1;stroke-width:2;stroke-linecap:round;stroke-linejoin:round"/><circle cx="50.069" cy="55.594" r="2.112" style="fill:#3d3846;stroke-width:3.59999;stroke-linecap:round;stroke-linejoin:round"/><path d="m59.163 16.317-2.327 9.028 6.528 6.654-6.528 6.655 2.326 9.028-8.98 2.499-2.5 8.982-9.027-2.327L32 63.364l-6.656-6.527-9.027 2.325-2.5-8.98-8.981-2.5 2.326-9.027L.635 32l6.528-6.656-2.326-9.027 8.98-2.5 2.5-8.981 9.028 2.327L31.999.635l6.655 6.528 9.028-2.326 2.499 8.98z" style="fill:url(#e);stroke-width:1.99999;stroke-linecap:round;stroke-linejoin:round"/><circle cx="55.795" cy="49.911" r="2.112" style="fill:#3d3846;stroke-width:3.59999;stroke-linecap:round;stroke-linejoin:round"/><circle cx="26.574" cy="49.911" r="2.358" style="fill:#3d3846;stroke-width:3.59999;stroke-linecap:round;stroke-linejoin:round"/><circle cx="15.382" cy="46.239" r="1.326" style="fill:#3d3846;stroke-width:3.6;stroke-linecap:round;stroke-linejoin:round"/><path d="m54.504 31.965-5.448 7.068-1.119 8.855-8.85 1.145-7.052 5.471-7.069-5.449-8.854-1.118-1.146-8.85-5.47-7.052 5.448-7.069 1.119-8.854 8.85-1.146 7.052-5.47 7.069 5.448 8.854 1.118 1.146 8.851z" style="fill:url(#f);stroke-width:2.00001;stroke-linecap:round;stroke-linejoin:round"/><path d="m23.966 18.084 6.958 9.902L32 15.931l1.077 12.055 6.958-9.902L34.94 29.06l10.978-5.096-9.903 6.96L48.07 32l-12.054 1.075 9.902 6.959-10.978-5.097 5.095 10.98-6.959-9.904L32 48.068l-1.075-12.054-6.96 9.901 5.097-10.977-10.979 5.096 9.903-6.96-12.055-1.073 12.054-1.076-9.901-6.958 10.977 5.096z" style="fill:#f6d32d;stroke-width:2;stroke-linecap:round;stroke-linejoin:round"/><path d="M42.589 21.412 39.699 32l2.89 10.59L32 39.7l-10.589 2.89L24.301 32l-2.89-10.589 10.59 2.89z" style="fill:#f9f06b;stroke-width:2;stroke-linecap:round;stroke-linejoin:round"/><circle cx="44.71" cy="15.661" r="2.88" style="fill:#3d3846;stroke-width:3.6;stroke-linecap:round;stroke-linejoin:round"/><circle cx="50.069" cy="22.671" r="1.326" style="fill:#3d3846;stroke-width:3.6;stroke-linecap:round;stroke-linejoin:round"/><circle cx="20.074" cy="54.829" r="3.366" style="fill:#3d3846;stroke-width:3.59999;stroke-linecap:round;stroke-linejoin:round"/><circle cx="22.246" cy="14.107" r="1.326" style="fill:#3d3846;stroke-width:3.6;stroke-linecap:round;stroke-linejoin:round"/><circle cx="3.366" cy="22.671" r="2.112" style="fill:#3d3846;stroke-width:3.59999;stroke-linecap:round;stroke-linejoin:round"/></svg>