<svg xmlns="http://www.w3.org/2000/svg" xmlns:xlink="http://www.w3.org/1999/xlink" xml:space="preserve" width="64" height="64"><defs><linearGradient id="a"><stop offset="0" style="stop-color:#4b3f62;stop-opacity:1"/><stop offset="1" style="stop-color:#453956;stop-opacity:1"/></linearGradient><linearGradient xlink:href="#a" id="b" x1="43.275" x2="43.275" y1="1.932" y2="27.556" gradientUnits="userSpaceOnUse"/></defs><path d="m10.014 55.357.001 3.323C10.016 61.618 16.83 64 25.232 64s15.214-2.382 15.215-5.32v-3.323" style="fill:#3b314d;fill-opacity:1;stroke-width:1.99998;stroke-linecap:round;stroke-linejoin:round"/><ellipse cx="25.231" cy="55.357" rx="15.215" ry="5.32" style="fill:#4b3f62;fill-opacity:1;stroke-width:1.99998;stroke-linecap:round;stroke-linejoin:round"/><path d="M22.434 0v55.357c0 .56 1.251 1.013 2.796 1.013s2.8-.453 2.8-1.013V35.64l36.087-16.61L28.03 2.554Z" style="display:inline;fill:url(#b);fill-opacity:1;stroke:none;stroke-width:1.54962;stroke-linecap:square;stroke-linejoin:bevel;stroke-dasharray:none;stroke-opacity:1;paint-order:normal"/><g style="stroke-width:1.20989"><path d="m820.986 59.236-4.308 4.291h-.705v.703l-1.815 1.807-1.814-1.803v-.707h-.713l-4.3-4.271-4.304 4.271h-1.406v1.38h.018l-.018.017 6.828 6.781-5.486 5.45h-1.342v1.376h.045l5.664 5.625 6.828-6.781 6.828 6.781 5.664-5.625h.045v-1.377h-1.342l-5.488-5.449 6.83-6.799v-1.379h-1.388z" style="font-weight:700;font-size:37.4627px;line-height:1.4;font-family:&quot;Inter Variable&quot;;-inkscape-font-specification:&quot;Inter Variable Bold&quot;;letter-spacing:0;word-spacing:0;fill:#3b314d;stroke-width:12.099;paint-order:markers stroke fill;fill-opacity:1" transform="translate(-619.277 -12.355)scale(.82652)"/><path d="m817.034 70.617 6.805 6.805-5.689 5.688-6.805-6.804-6.804 6.804-5.69-5.688 6.805-6.805-6.804-6.805 5.689-5.689 6.804 6.805 6.805-6.823 5.689 5.689z" aria-label="✖" style="font-weight:700;font-size:37.4627px;line-height:1.4;font-family:&quot;Inter Variable&quot;;-inkscape-font-specification:&quot;Inter Variable Bold&quot;;letter-spacing:0;word-spacing:0;fill:#4b3f62;fill-opacity:1;stroke-width:12.099;paint-order:markers stroke fill" transform="matrix(.82938 0 0 .82366 -619.277 -12.355)"/></g></svg>