<svg xmlns="http://www.w3.org/2000/svg" xmlns:xlink="http://www.w3.org/1999/xlink" xml:space="preserve" width="64" height="64"><defs><linearGradient id="b"><stop offset="0" style="stop-color:#e62831;stop-opacity:1"/><stop offset="1" style="stop-color:#e7323b;stop-opacity:1"/></linearGradient><linearGradient id="a"><stop offset="0" style="stop-color:#e52931;stop-opacity:1"/><stop offset="1" style="stop-color:#d0202c;stop-opacity:1"/></linearGradient><linearGradient xlink:href="#a" id="c" x1="691.114" x2="691.114" y1="68.003" y2="37.573" gradientTransform="matrix(1 0 0 .69401 -666 18.722)" gradientUnits="userSpaceOnUse"/><linearGradient xlink:href="#b" id="d" x1="857.158" x2="857.158" y1="123.404" y2="128.09" gradientTransform="translate(-814 -78.698)" gradientUnits="userSpaceOnUse"/></defs><path d="m9.897 55.357.001 3.323C9.899 61.618 16.712 64 25.115 64c8.402 0 15.214-2.382 15.215-5.32l-.001-3.323" style="fill:#a51d2d;stroke-width:1.99998;stroke-linecap:round;stroke-linejoin:round"/><ellipse cx="25.114" cy="55.357" rx="15.215" ry="5.32" style="fill:url(#c);fill-opacity:1;stroke-width:1.99998;stroke-linecap:round;stroke-linejoin:round"/><path d="M863.687 133.369v-1.076q0-1.67.37-2.8a4.57 4.57 0 0 1 1.28-1.967q.929-.853 2.523-1.632 1.28-.63 1.892-1.465.612-.854.612-1.818 0-.798-.39-1.41a2.46 2.46 0 0 0-1.057-.946q-.667-.352-1.558-.352-.983 0-1.743.427a2.83 2.83 0 0 0-1.15 1.168q-.408.742-.408 1.744h-6.9q0-2.634 1.28-4.693 1.298-2.058 3.617-3.246 2.317-1.187 5.415-1.187 2.95 0 5.194.983 2.244.965 3.505 2.69 1.28 1.706 1.28 3.932 0 2.15-.872 3.802-.852 1.65-2.633 2.8-1.077.687-1.966 1.336-.89.649-1.429 1.373a2.8 2.8 0 0 0-.519 1.669v.668q-3.172-1.485-6.343 0m3.283 9.106q-1.596 0-2.727-1.131t-1.131-2.727 1.131-2.726q1.131-1.131 2.727-1.131t2.726 1.131 1.132 2.726q0 1.596-1.132 2.727t-2.726 1.131" aria-label="?" style="font-weight:900;font-size:37.9854px;font-family:&quot;Inter Variable&quot;;-inkscape-font-specification:&quot;Inter Variable Heavy&quot;;fill:#a51d2d;stroke-width:2;stroke-linecap:round;stroke-linejoin:round" transform="translate(-814 -81.19)"/><path d="M863.687 132.443v-1.076q0-1.67.37-2.8a4.57 4.57 0 0 1 1.28-1.967q.929-.854 2.523-1.632 1.28-.63 1.892-1.465.612-.854.612-1.818 0-.797-.39-1.41a2.46 2.46 0 0 0-1.057-.945q-.667-.353-1.558-.353-.983 0-1.743.427a2.83 2.83 0 0 0-1.15 1.168q-.408.742-.408 1.744h-6.9q0-2.634 1.28-4.693 1.298-2.058 3.617-3.246 2.317-1.186 5.415-1.187 2.95 0 5.194.983 2.244.965 3.505 2.69 1.28 1.706 1.28 3.932 0 2.151-.872 3.802-.852 1.65-2.633 2.8-1.077.687-1.966 1.336-.89.649-1.429 1.373a2.8 2.8 0 0 0-.519 1.669v.668q-3.172-1.564-6.343 0m3.283 9.107q-1.596 0-2.727-1.132t-1.131-2.726 1.131-2.727q1.131-1.131 2.727-1.131t2.726 1.131 1.132 2.727-1.132 2.726-2.726 1.132" aria-label="?" style="font-weight:900;font-size:37.9854px;font-family:&quot;Inter Variable&quot;;-inkscape-font-specification:&quot;Inter Variable Heavy&quot;;fill:#e62831;fill-opacity:1;stroke-width:2;stroke-linecap:round;stroke-linejoin:round" transform="translate(-814 -81.19)"/><path d="M22.316 0v55.357c0 .56 1.252 1.013 2.797 1.013s2.8-.453 2.8-1.013V35.64L64 19.03 27.912 2.554Z" style="display:inline;fill:url(#d);fill-opacity:1;stroke:none;stroke-width:1.54962;stroke-linecap:square;stroke-linejoin:bevel;stroke-dasharray:none;stroke-opacity:1;paint-order:normal"/></svg>