<?xml version="1.0" encoding="utf-8"?>
<!DOCTYPE svg PUBLIC "-//W3C//DTD SVG 1.1//EN" "http://www.w3.org/Graphics/SVG/1.1/DTD/svg11.dtd">
<svg xmlns="http://www.w3.org/2000/svg" version="1.1" width="161" height="161">
  <rect x="102.67" y="19" fill="#777777" stroke="#000000" stroke-width="3" width="36.67" height="8"/>
  <rect x="98.67" y="60" fill="#777777" stroke="#000000" stroke-width="3" width="42.31" height="8"/>
  <rect x="94.67" y="99" fill="#777777" stroke="#000000" stroke-width="3" width="50.9" height="8"/>
  <polygon fill="#404040" points="151.64,126.87 144.6,126.87 132.03,27.19 139.07,27.19"/>
  <polygon fill="#777777" points="148.1,127.17 144.6,126.87 132.03,27.19 135.53,27.48"/>
  <polygon fill="none" stroke="#000000" stroke-width="3" points="151.64,126.87 144.6,126.87 132.03,27.19 139.07,27.19"/>
  <polygon fill="#404040" points="90.86,126.87 97.9,126.87 110.47,27.19 103.43,27.19"/>
  <polygon fill="#777777" points="90.86,126.87 94.9,126.87 107.47,27.19 103.43,27.19"/>
  <polygon fill="none" stroke="#000000" stroke-width="3" points="90.86,126.87 97.9,126.87 110.47,27.19 103.43,27.19"/>
  <path fill="#404040" stroke="#404040" d="M154.18,121.94h-5.24c0,0,0.98,24.81-4.89,24.81c-5.87,0-44.99,0-50.86,0c-4.33,0-4.93-13.47-4.95-20.56c-0.02,8.28,0.51,25.81,5.38,25.81c6.38,0,48.87,0,55.24,0C155.25,152,154.18,121.94,154.18,121.94z"/>
  <path fill="#777777" stroke="#777777" d="M93.2,146.75c5.87,0,44.99,0,50.86,0c5.87,0,4.89-24.81,4.89-24.81H88.32h-0.01c0,0-0.07,1.72-0.06,4.25C88.27,133.27,88.88,146.75,93.2,146.75z"/>
  <path fill="none" stroke="#000000" stroke-width="3.5" d="M93.63,152c6.38,0,48.87,0,55.24,0c6.37,0,5.31-30.06,5.31-30.06H88.32C88.32,121.94,87.25,152,93.63,152z"/>
  <rect x="118.5" y="23" fill="#777777" stroke="#000000" stroke-width="2" width="7" height="80"/>
  <path fill="#FFFFFF" d="M91.57,137.06c-1.31-13.13-1.31-13.43,24.89-11.81C91.57,127.16,93.48,125.55,91.57,137.06z"/>
  <linearGradient id="paint" gradientUnits="userSpaceOnUse" x1="14.5" y1="99" x2="119.5" y2="99">
    <stop offset="0" style="stop-color:#185888"/>
    <stop offset="0.33" style="stop-color:#2D55B4"/>
    <stop offset="0.66" style="stop-color:#5050FF"/>
    <stop offset="1" style="stop-color:#105080"/>
  </linearGradient>
  <path fill="url(#paint)" stroke="#000000" stroke-width="6" d="M67.35,13.97c-13.99,13.43-51.85,0-51.85,0V60.6v47.93c0,0,37.86,13.43,51.85,0c14-13.43,53.15,0,53.15,0V60.6V13.97C120.5,13.97,81.35,0.54,67.35,13.97z"/>
  <path fill="#FFFFFF" stroke="#142359" stroke-width="3" d="M92,46.99c0,2.75-0.41,5.12-1.21,7.11c-0.81,1.99-2.23,4.04-4.26,6.13c-0.92,0.95-2.54,2.27-4.89,3.96c-2.35,1.66-3.95,3.05-4.8,4.11c-0.66,0.84-1.22,1.9-1.64,3.17c-0.43,1.27-0.67,1.98-0.73,2.11c-0.51,1.1-1.25,1.94-2.2,2.5c-0.95,0.57-2.09,0.86-3.42,0.86c-2.15,0-3.81-0.55-5-1.62c-1.17-1.06-1.76-2.57-1.76-4.5c0-1.68,0.44-3.4,1.33-5.13c0.88-1.75,2.14-3.35,3.76-4.82c0.77-0.71,1.92-1.66,3.48-2.9c4.58-3.56,6.87-6.97,6.87-10.24c0-2.8-0.83-5.04-2.47-6.71c-1.66-1.66-3.9-2.5-6.72-2.5c-2.09,0-3.89,0.41-5.38,1.2c-1.5,0.78-2.72,1.98-3.67,3.6c-0.26,0.41-0.6,1.04-1.05,1.87c-1.83,3.45-4.24,5.16-7.27,5.16c-1.87,0-3.35-0.55-4.4-1.62C45.51,47.63,45,46.12,45,44.2c0-1.86,0.5-3.77,1.52-5.75c1.02-1.96,2.46-3.78,4.34-5.46c2.26-2.05,4.78-3.55,7.57-4.53C61.22,27.5,64.42,27,68,27c7.34,0,13.17,1.82,17.5,5.42C89.84,36.06,92,40.91,92,46.99z M60.67,89.64c0-2.07,0.76-3.83,2.23-5.29c1.49-1.47,3.29-2.2,5.43-2.2c2.22,0,4.07,0.73,5.56,2.16c1.49,1.47,2.23,3.22,2.23,5.32c0,2.05-0.77,3.78-2.29,5.22C72.33,96.28,70.48,97,68.33,97c-2.09,0-3.9-0.73-5.4-2.17C61.42,93.4,60.67,91.66,60.67,89.64z"/>
</svg>
