<?xml version="1.0" encoding="UTF-8" standalone="no"?>
<svg
   xmlns:dc="http://purl.org/dc/elements/1.1/"
   xmlns:cc="http://creativecommons.org/ns#"
   xmlns:rdf="http://www.w3.org/1999/02/22-rdf-syntax-ns#"
   xmlns:svg="http://www.w3.org/2000/svg"
   xmlns="http://www.w3.org/2000/svg"
   xmlns:xlink="http://www.w3.org/1999/xlink"
   xmlns:sodipodi="http://sodipodi.sourceforge.net/DTD/sodipodi-0.dtd"
   xmlns:inkscape="http://www.inkscape.org/namespaces/inkscape"
   version="1.1"
   width="64.001488"
   height="66.371208"
   id="svg2"
   inkscape:version="0.48.4 r9939"
   sodipodi:docname="flag-question.svg">
  <metadata
     id="metadata49">
    <rdf:RDF>
      <cc:Work
         rdf:about="">
        <dc:format>image/svg+xml</dc:format>
        <dc:type
           rdf:resource="http://purl.org/dc/dcmitype/StillImage" />
      </cc:Work>
    </rdf:RDF>
  </metadata>
  <defs
     id="defs47">
    <linearGradient
       inkscape:collect="always"
       xlink:href="#paint"
       id="linearGradient3044"
       gradientUnits="userSpaceOnUse"
       x1="14.5"
       y1="99"
       x2="119.5"
       y2="99" />
  </defs>
  <sodipodi:namedview
     pagecolor="#ffffff"
     bordercolor="#666666"
     borderopacity="1"
     objecttolerance="10"
     gridtolerance="10"
     guidetolerance="10"
     inkscape:pageopacity="0"
     inkscape:pageshadow="2"
     inkscape:window-width="1399"
     inkscape:window-height="868"
     id="namedview45"
     showgrid="false"
     fit-margin-top="0"
     fit-margin-left="0"
     fit-margin-right="0"
     fit-margin-bottom="0"
     inkscape:zoom="1.4658385"
     inkscape:cx="69.364407"
     inkscape:cy="73.25"
     inkscape:window-x="0"
     inkscape:window-y="27"
     inkscape:window-maximized="0"
     inkscape:current-layer="svg2" />
  <linearGradient
     id="paint"
     gradientUnits="userSpaceOnUse"
     x1="14.5"
     y1="99"
     x2="119.5"
     y2="99">
    <stop
       offset="0"
       style="stop-color:#185888"
       id="stop33" />
    <stop
       offset="0.33"
       style="stop-color:#2D55B4"
       id="stop35" />
    <stop
       offset="0.66"
       style="stop-color:#5050FF"
       id="stop37" />
    <stop
       offset="1"
       style="stop-color:#105080"
       id="stop39" />
  </linearGradient>
  <g
     id="g3026"
     transform="matrix(0.44600517,0,0,0.44600517,-5.5750646,-2.2020885)">
    <rect
       id="rect4"
       height="8"
       width="36.669998"
       y="19"
       x="102.67"
       style="fill:#777777;stroke:#000000;stroke-width:3" />
    <rect
       id="rect6"
       height="8"
       width="42.310001"
       y="60"
       x="98.669998"
       style="fill:#777777;stroke:#000000;stroke-width:3" />
    <rect
       id="rect8"
       height="8"
       width="50.900002"
       y="99"
       x="94.669998"
       style="fill:#777777;stroke:#000000;stroke-width:3" />
    <polygon
       id="polygon10"
       points="151.64,126.87 144.6,126.87 132.03,27.19 139.07,27.19 "
       style="fill:#404040" />
    <polygon
       id="polygon12"
       points="148.1,127.17 144.6,126.87 132.03,27.19 135.53,27.48 "
       style="fill:#777777" />
    <polygon
       id="polygon14"
       points="151.64,126.87 144.6,126.87 132.03,27.19 139.07,27.19 "
       style="fill:none;stroke:#000000;stroke-width:3" />
    <polygon
       id="polygon16"
       points="90.86,126.87 97.9,126.87 110.47,27.19 103.43,27.19 "
       style="fill:#404040" />
    <polygon
       id="polygon18"
       points="90.86,126.87 94.9,126.87 107.47,27.19 103.43,27.19 "
       style="fill:#777777" />
    <polygon
       id="polygon20"
       points="90.86,126.87 97.9,126.87 110.47,27.19 103.43,27.19 "
       style="fill:none;stroke:#000000;stroke-width:3" />
    <path
       id="path22"
       d="m 154.18,121.94 h -5.24 c 0,0 0.98,24.81 -4.89,24.81 -5.87,0 -44.99,0 -50.86,0 -4.33,0 -4.93,-13.47 -4.95,-20.56 -0.02,8.28 0.51,25.81 5.38,25.81 6.38,0 48.87,0 55.24,0 6.39,0 5.32,-30.06 5.32,-30.06 z"
       inkscape:connector-curvature="0"
       style="fill:#404040;stroke:#404040" />
    <path
       id="path24"
       d="m 93.2,146.75 c 5.87,0 44.99,0 50.86,0 5.87,0 4.89,-24.81 4.89,-24.81 H 88.32 88.31 c 0,0 -0.07,1.72 -0.06,4.25 0.02,7.08 0.63,20.56 4.95,20.56 z"
       inkscape:connector-curvature="0"
       style="fill:#777777;stroke:#777777" />
    <path
       id="path26"
       d="m 93.63,152 c 6.38,0 48.87,0 55.24,0 6.37,0 5.31,-30.06 5.31,-30.06 H 88.32 c 0,0 -1.07,30.06 5.31,30.06 z"
       inkscape:connector-curvature="0"
       style="fill:none;stroke:#000000;stroke-width:3.5" />
    <rect
       id="rect28"
       height="80"
       width="7"
       y="23"
       x="118.5"
       style="fill:#777777;stroke:#000000;stroke-width:2" />
    <path
       id="path30"
       d="m 91.57,137.06 c -1.31,-13.13 -1.31,-13.43 24.89,-11.81 -24.89,1.91 -22.98,0.3 -24.89,11.81 z"
       inkscape:connector-curvature="0"
       style="fill:#ffffff" />
    <path
       id="path41"
       d="m 67.35,13.97 c -13.99,13.43 -51.85,0 -51.85,0 v 46.63 47.93 c 0,0 37.86,13.43 51.85,0 14,-13.43 53.15,0 53.15,0 V 60.6 13.97 c 0,0 -39.15,-13.43 -53.15,0 z"
       style="fill:url(#linearGradient3044);stroke:#000000;stroke-width:6"
       inkscape:connector-curvature="0" />
    <path
       id="path43"
       d="m 92,46.99 c 0,2.75 -0.41,5.12 -1.21,7.11 -0.81,1.99 -2.23,4.04 -4.26,6.13 -0.92,0.95 -2.54,2.27 -4.89,3.96 -2.35,1.66 -3.95,3.05 -4.8,4.11 -0.66,0.84 -1.22,1.9 -1.64,3.17 -0.43,1.27 -0.67,1.98 -0.73,2.11 -0.51,1.1 -1.25,1.94 -2.2,2.5 -0.95,0.57 -2.09,0.86 -3.42,0.86 -2.15,0 -3.81,-0.55 -5,-1.62 -1.17,-1.06 -1.76,-2.57 -1.76,-4.5 0,-1.68 0.44,-3.4 1.33,-5.13 0.88,-1.75 2.14,-3.35 3.76,-4.82 0.77,-0.71 1.92,-1.66 3.48,-2.9 4.58,-3.56 6.87,-6.97 6.87,-10.24 0,-2.8 -0.83,-5.04 -2.47,-6.71 -1.66,-1.66 -3.9,-2.5 -6.72,-2.5 -2.09,0 -3.89,0.41 -5.38,1.2 -1.5,0.78 -2.72,1.98 -3.67,3.6 -0.26,0.41 -0.6,1.04 -1.05,1.87 -1.83,3.45 -4.24,5.16 -7.27,5.16 -1.87,0 -3.35,-0.55 -4.4,-1.62 C 45.51,47.63 45,46.12 45,44.2 c 0,-1.86 0.5,-3.77 1.52,-5.75 1.02,-1.96 2.46,-3.78 4.34,-5.46 2.26,-2.05 4.78,-3.55 7.57,-4.53 C 61.22,27.5 64.42,27 68,27 c 7.34,0 13.17,1.82 17.5,5.42 4.34,3.64 6.5,8.49 6.5,14.57 z M 60.67,89.64 c 0,-2.07 0.76,-3.83 2.23,-5.29 1.49,-1.47 3.29,-2.2 5.43,-2.2 2.22,0 4.07,0.73 5.56,2.16 1.49,1.47 2.23,3.22 2.23,5.32 0,2.05 -0.77,3.78 -2.29,5.22 -1.5,1.43 -3.35,2.15 -5.5,2.15 -2.09,0 -3.9,-0.73 -5.4,-2.17 -1.51,-1.43 -2.26,-3.17 -2.26,-5.19 z"
       inkscape:connector-curvature="0"
       style="fill:#ffffff;stroke:#142359;stroke-width:3" />
  </g>
</svg>
